<svg xmlns="http://www.w3.org/2000/svg" xmlns:xlink="http://www.w3.org/1999/xlink" width="459" height="499" viewBox="0 0 459 499">
    <defs>
        <filter id="a" width="119.2%" height="138.4%" x="-9.6%" y="-12.9%" filterUnits="objectBoundingBox">
            <feOffset dy="8" in="SourceAlpha" result="shadowOffsetOuter1"/>
            <feGaussianBlur in="shadowOffsetOuter1" result="shadowBlurOuter1" stdDeviation="5"/>
            <feColorMatrix in="shadowBlurOuter1" result="shadowMatrixOuter1" values="0 0 0 0 0 0 0 0 0 0 0 0 0 0 0 0 0 0 0.2 0"/>
            <feMorphology in="SourceAlpha" operator="dilate" radius="2.5" result="shadowSpreadOuter2"/>
            <feOffset dy="6" in="shadowSpreadOuter2" result="shadowOffsetOuter2"/>
            <feGaussianBlur in="shadowOffsetOuter2" result="shadowBlurOuter2" stdDeviation="15"/>
            <feColorMatrix in="shadowBlurOuter2" result="shadowMatrixOuter2" values="0 0 0 0 0 0 0 0 0 0 0 0 0 0 0 0 0 0 0.12 0"/>
            <feMorphology in="SourceAlpha" operator="dilate" radius="1" result="shadowSpreadOuter3"/>
            <feOffset dy="16" in="shadowSpreadOuter3" result="shadowOffsetOuter3"/>
            <feGaussianBlur in="shadowOffsetOuter3" result="shadowBlurOuter3" stdDeviation="12"/>
            <feColorMatrix in="shadowBlurOuter3" result="shadowMatrixOuter3" values="0 0 0 0 0 0 0 0 0 0 0 0 0 0 0 0 0 0 0.14 0"/>
            <feMerge>
                <feMergeNode in="shadowMatrixOuter1"/>
                <feMergeNode in="shadowMatrixOuter2"/>
                <feMergeNode in="shadowMatrixOuter3"/>
                <feMergeNode in="SourceGraphic"/>
            </feMerge>
        </filter>
        <circle id="b" cx="380.282" cy="380.282" r="380.282"/>
    </defs>
    <g fill="none" fill-rule="evenodd" filter="url(#a)" transform="rotate(-45 30.656 677.117)">
        <mask id="c" fill="#fff">
            <use xlink:href="#b"/>
        </mask>
        <use fill="#DFE3E8" xlink:href="#b"/>
        <path fill="#C4CDD5" d="M432.138 414.853L704.84 687.554 432.138 793.928z" mask="url(#c)"/>
        <circle cx="525.993" cy="673.473" r="25.92" fill="#FFF" mask="url(#c)"/>
        <path fill="#FFF" d="M380.282 656.85c-152.745 0-276.569-123.824-276.569-276.568 0-152.745 123.824-276.569 276.569-276.569 152.744 0 276.568 123.824 276.568 276.569 0 152.744-123.824 276.568-276.568 276.568zm0-120.999c85.919 0 155.57-69.65 155.57-155.57 0-85.918-69.651-155.57-155.57-155.57-85.92 0-155.57 69.652-155.57 155.57 0 85.92 69.65 155.57 155.57 155.57z" mask="url(#c)"/>
        <path fill="#F9FAFB" d="M328.425 414.853h103.713v345.71H328.425z" mask="url(#c)"/>
    </g>
</svg>
