<svg xmlns="http://www.w3.org/2000/svg" width="147" height="20" viewBox="0 0 147 20">
    <defs>
        <linearGradient id="a" x1=".08%" x2="100.144%" y1="49.96%" y2="49.96%">
            <stop offset="0%" stop-color="#4CBFD7"/>
            <stop offset="2.126%" stop-color="#49BDD7"/>
            <stop offset="25.25%" stop-color="#2DAED1"/>
            <stop offset="40.5%" stop-color="#20A9CF"/>
            <stop offset="52.61%" stop-color="#24A6CF"/>
            <stop offset="70.27%" stop-color="#2B9CCD"/>
            <stop offset="91.24%" stop-color="#368BC8"/>
            <stop offset="100%" stop-color="#3B82C4"/>
        </linearGradient>
        <radialGradient id="b" cx="73.231%" cy="31.423%" r="81.651%" fx="73.231%" fy="31.423%">
            <stop offset="0%" stop-color="#1391AE" stop-opacity="0"/>
            <stop offset="81.39%" stop-color="#1391AE" stop-opacity=".867"/>
            <stop offset="93.92%" stop-color="#1391AE"/>
        </radialGradient>
        <radialGradient id="c" cx="22.988%" cy="19.963%" r="90.286%" fx="22.988%" fy="19.963%">
            <stop offset="0%" stop-color="#1391AE" stop-opacity="0"/>
            <stop offset="31.99%" stop-color="#1290AF" stop-opacity=".307"/>
            <stop offset="56.52%" stop-color="#0F8BB0" stop-opacity=".557"/>
            <stop offset="79%" stop-color="#0A83B2" stop-opacity=".786"/>
            <stop offset="100%" stop-color="#0C77B2"/>
        </radialGradient>
        <radialGradient id="d" cx="50.146%" cy="53.619%" r="66.55%" fx="50.146%" fy="53.619%" gradientTransform="matrix(0 -.83401 1 0 -.035 .954)">
            <stop offset="2.147%" stop-color="#C3C2C2"/>
            <stop offset="12.59%" stop-color="#BAB9B9"/>
            <stop offset="28.81%" stop-color="#A4A2A2"/>
            <stop offset="48.77%" stop-color="#827F80"/>
            <stop offset="71.7%" stop-color="#595556"/>
            <stop offset="96.84%" stop-color="#2C292A"/>
            <stop offset="99.8%" stop-color="#272425"/>
        </radialGradient>
        <radialGradient id="e" cx="28.286%" cy="21.433%" r="99.857%" fx="28.286%" fy="21.433%" gradientTransform="matrix(1 0 0 .834 0 .036)">
            <stop offset="2.147%" stop-color="#C3C2C2"/>
            <stop offset="99.8%" stop-color="#272425"/>
        </radialGradient>
    </defs>
    <g fill="none" fill-rule="nonzero" opacity=".7">
        <path fill="#444" d="M77.37.212c-.783 0-1.474.54-1.704 1.294l-3.387 11.6L67.809.212h-1.912c-.553 0-1.06.353-1.245.894L60.482 13.2 56.98 1.176c-.162-.564-.691-.964-1.244-.964h-2.65l5.691 18.564h1.636c.737 0 1.405-.47 1.659-1.176L66.38 5.976l4.747 12.8h1.981c.53 0 .991-.352 1.152-.87L79.698.188h-2.327v.024zM120.687.212h-2.35c-.622 0-1.106.517-1.106 1.13v17.434h10.115c.991 0 1.774-.823 1.774-1.811v-1.53h-8.433V.212zM111.24 12.847c2.443-1.153 3.78-3.365 3.78-6.235 0-3.083-2.074-6.4-6.636-6.4h-7.65c-.622 0-1.106.517-1.106 1.13v17.434h1.682c.99 0 1.774-.823 1.774-1.811V13.27h3.963l4.47 5.505h4.148l-4.77-5.929h.346zm-2.718-2.941h-5.461V3.553h5.46c1.176 0 1.89.588 2.282 1.082.46.565.714 1.365.714 2.094.023 1.295-1.06 3.177-2.995 3.177zM136.908.212h-5.253c-.622 0-1.106.517-1.106 1.13v17.434h6.36c6.888 0 9.976-4.682 9.976-9.317 0-4.612-3.088-9.247-9.977-9.247zm.392 15.223h-3.295V3.53h3.295c1.912 0 3.502.66 4.608 1.93.945 1.059 1.475 2.517 1.475 4 0 2.87-2.328 5.976-6.083 5.976z"/>
        <g fill="#9C9C9C">
            <path d="M26.98.212h-8.064c-.69 0-1.267.588-1.267 1.294V18.8h3.11c.922 0 1.683-.776 1.683-1.718v-2.847h3.87l3.134 4.565h5.207l-3.755-5.435.437-.283c1.752-1.13 2.95-3.482 2.95-5.882 0-4.8-3.779-6.988-7.304-6.988zm.07 9.482h-4.608V4.635h4.608c1.613 0 2.465 1.27 2.465 2.518 0 .988-.668 2.541-2.465 2.541zM5.945 18.8h3.11c.922 0 1.682-.776 1.682-1.718v-11.2V4.73h4.4c.784 0 1.43-.658 1.43-1.458V.259H1.036a.934.934 0 0 0-.922.941v3.506h5.83V18.8zM40.713 18.8h3.11c.922 0 1.682-.776 1.682-1.718V4.706h4.401c.784 0 1.429-.659 1.429-1.459V.235h-15.53a.934.934 0 0 0-.921.941v3.53h5.829V18.8z"/>
        </g>
        <g>
            <g transform="translate(83.941 4.706)">
                <circle cx="5.153" cy="5.271" r="5.082" fill="url(#a)"/>
                <circle cx="5.153" cy="5.271" r="5.082" fill="url(#b)"/>
                <circle cx="5.153" cy="5.271" r="5.082" fill="url(#c)"/>
            </g>
            <path fill="url(#d)" d="M13.482.635l-.776-.211C8.518-.706 4 3.882 3.624 9.247a6.545 6.545 0 0 1 1.835-3.859 6.467 6.467 0 0 1 4.635-1.93c1.859 0 3.506.777 4.706 2a6.486 6.486 0 0 1 1.812 4.518c0 .236-.024.495-.047.73-.377 5.365-4.894 9.953-9.083 8.823l-.776-.211c1.035.353 2.188.54 3.388.54 5.647 0 9.882-4.258 9.882-9.882C20 5.53 17.365 1.953 13.482.636z" transform="translate(79)"/>
            <path fill="url(#e)" d="M10.094 16.47c-2.4 0-4.494-1.27-5.623-3.223a6.514 6.514 0 0 1-.895-3.294c0-.235.024-.494.048-.73C4 3.86 8.518-.728 12.706.4l.776.212A10.543 10.543 0 0 0 10.094.07C4.447.07.212 4.329.212 9.953c0 4.447 2.635 8.023 6.494 9.341l.776.212c4.189 1.13 8.706-3.459 9.083-8.824a6.495 6.495 0 0 1-2.165 4.165 6.415 6.415 0 0 1-4.306 1.624z" transform="translate(79)"/>
        </g>
    </g>
</svg>
