<svg xmlns="http://www.w3.org/2000/svg" width="1680" height="1000" viewBox="0 0 1680 1000">
    <g fill="none" fill-rule="nonzero" stroke-width="3.02">
        <path fill="#8CB2D4" stroke="#8CB2D4" d="M820.465 507.81l-299.25-183.085 112.451 243.494z"/>
        <path fill="#90B4D6" stroke="#90B4D6" d="M820.465 507.81l41.82-292.75-341.07 109.665z"/>
        <path fill="#6EA4CC" stroke="#6EA4CC" d="M633.666 568.22l295.532 340.148L820.465 507.81z"/>
        <path fill="#88AED2" stroke="#88AED2" d="M156.912 741.082l305.755 78.067 171-250.93z"/>
        <path fill="#A6BDDB" stroke="#A6BDDB" d="M862.285 215.06L685.71-81.41 521.216 324.725z"/>
        <path fill="#95B5D6" stroke="#95B5D6" d="M521.216 324.725L156.912 741.082l476.754-172.863z"/>
        <path fill="#BDC7E1" stroke="#BDC7E1" d="M393.895-167.84L151.336 315.43l369.88 9.294z"/>
        <path fill="#7CABD0" stroke="#7CABD0" d="M820.465 507.81l663.553-361.524-621.733 68.773z"/>
        <path fill="#72A2CC" stroke="#72A2CC" d="M462.667 819.149l466.531 89.219-295.532-340.149z"/>
        <path fill="#ABC0DD" stroke="#ABC0DD" d="M862.285 215.06l-50.184-372.677L685.71-81.41z"/>
        <path fill="#A6BFDC" stroke="#A6BFDC" d="M151.336 315.431l5.576 425.65 364.304-416.356z"/>
        <path fill="#BBC7E1" stroke="#BBC7E1" d="M685.71-81.409L393.895-167.84l127.32 492.565z"/>
        <path fill="#6A96C6" stroke="#6A96C6" d="M462.667 819.149l144.978 319.702 321.553-230.483z"/>
        <path fill="#87A7CF" stroke="#87A7CF" d="M156.912 741.082L415.27 978.07l47.397-158.922z"/>
        <path fill="#789AC8" stroke="#789AC8" d="M415.27 978.07l192.375 160.781L462.667 819.15z"/>
        <path fill="#589CC7" stroke="#589CC7" d="M1447.773 749.446l36.245-603.16L820.465 507.81z"/>
        <path fill="#9BB8D8" stroke="#9BB8D8" d="M862.285 215.06l518.575-329.926-568.76-42.751z"/>
        <path fill="#4E97C5" stroke="#4E97C5" d="M929.198 908.368l518.575-158.922L820.465 507.81z"/>
        <path fill="#3585BB" stroke="#3585BB" d="M1187.556 1118.405l260.217-368.959-518.575 158.922z"/>
        <path fill="#81ABD1" stroke="#81ABD1" d="M1484.018 146.286L1380.86-114.866 862.285 215.059z"/>
        <path fill="#D1D4E8" stroke="#D1D4E8" d="M393.895-167.84L-67.99-104.643 151.336 315.43z"/>
        <path fill="#4885B4" stroke="#4885B4" d="M845.557 1327.513l342-209.108-258.359-210.037z"/>
        <path fill="#A9C2DE" stroke="#A9C2DE" d="M151.336 315.431l-377.314 315.056 382.89 110.595z"/>
        <path fill="#83A3CD" stroke="#83A3CD" d="M1484.018 146.286l175.646-388.476-278.804 127.324z"/>
        <path fill="#5792C3" stroke="#5792C3" d="M1447.773 749.446l148.695-533.457-112.45-69.703z"/>
        <path fill="#CBD4E8" stroke="#CBD4E8" d="M-67.99-104.643L-252 361.9l403.336-46.469z"/>
        <path fill="#87A2CC" stroke="#87A2CC" d="M156.912 741.082l-6.505 486.06L415.27 978.07z"/>
        <path fill="#7B97C0" stroke="#7B97C0" d="M415.27 978.07l-264.863 249.071 457.238-88.29z"/>
        <path fill="#B7CBE3" stroke="#B7CBE3" d="M-252 361.9l26.022 268.587 377.314-315.056z"/>
        <path fill="#5B8AB8" stroke="#5B8AB8" d="M607.645 1138.851l237.912 188.662 83.641-419.145z"/>
        <path fill="#92ABD2" stroke="#92ABD2" d="M-197.169 860.97l347.576 366.171 6.505-486.06z"/>
        <path fill="#9FBBDA" stroke="#9FBBDA" d="M-225.978 630.487l28.81 230.483 354.08-119.888z"/>
        <path fill="#207AB2" stroke="#207AB2" d="M1187.556 1118.405l185.87 66.915 74.347-435.874z"/>
        <path fill="#478ABE" stroke="#478ABE" d="M1447.773 749.446l284.38-273.234-135.685-260.223z"/>
        <path fill="#257DB3" stroke="#257DB3" d="M1802.783 857.253l-70.63-381.041-284.38 273.234z"/>
        <path fill="#779BC9" stroke="#779BC9" d="M1659.664-242.19l-175.646 388.476 112.45 69.703z"/>
        <path fill="#7194C0" stroke="#7194C0" d="M1892 247.587L1659.664-242.19l-63.196 458.179z"/>
        <path fill="#8EA3C6" stroke="#8EA3C6" d="M-197.169 860.97l105.946 462.826 241.63-96.655z"/>
        <path fill="#1174B2" stroke="#1174B2" d="M1373.426 1185.32l429.357-328.067-355.01-107.807z"/>
        <path fill="#588AB9" stroke="#588AB9" d="M1732.153 476.212L1892 247.587l-295.532-31.598z"/>
        <path fill="#04649E" stroke="#04649E" d="M1373.426 1185.32l502.776 220.26-73.419-548.327z"/>
        <path fill="#7792B9" stroke="#7792B9" d="M1892 247.587l171-376.394-403.336-113.383z"/>
    </g>
</svg>
