<svg xmlns="http://www.w3.org/2000/svg" xmlns:xlink="http://www.w3.org/1999/xlink" width="108" height="40" viewBox="0 0 108 40">
    <defs>
        <path id="a" d="M.314 7.972h8.358V.39H.314z"/>
    </defs>
    <g fill="none" fill-rule="evenodd">
        <path fill="#1C4369" d="M44.087 21.17H39.86V12.75l4.227 8.422zm6.78 6.094L42.039 9.67h-5.544v17.595h3.365v-3.263h5.649l1.636 3.263h3.722zM31.867 12.726v8.422h-4.225l4.225-8.422zm-7.283 14.516l1.638-3.263h5.645v3.263h3.366V9.648H29.69l-8.828 17.594h3.722z"/>
        <g fill="#1C4369">
            <path d="M23.029 19.141a13.238 13.238 0 0 1-.282-2.719c0-7.276 5.898-13.174 13.174-13.174 7.278 0 13.176 5.898 13.176 13.174 0 .95-.101 1.877-.292 2.77l1.953 3.895a16.18 16.18 0 0 0 1.425-6.665c0-8.98-7.28-16.26-16.262-16.26-8.98 0-16.259 7.28-16.259 16.26 0 2.36.503 4.602 1.408 6.626l1.959-3.907M3.467 35.82c.037 0 .044-.023.037-.045l-.661-1.813c-.008-.03-.015-.066-.037-.066s-.037.036-.044.066l-.675 1.806c-.008.03 0 .052.028.052h1.352zm-1.499.367c-.036 0-.05.015-.066.06l-.396 1.05c-.073.183-.11.36-.11.448 0 .132.066.227.293.227h.11c.089 0 .11.016.11.059 0 .058-.043.074-.124.074-.235 0-.55-.022-.778-.022-.081 0-.485.022-.867.022-.096 0-.14-.016-.14-.074 0-.043.03-.06.088-.06.066 0 .17-.006.228-.013.338-.044.477-.294.624-.661l1.844-4.614c.088-.212.132-.293.205-.293.067 0 .11.066.185.234.176.405 1.351 3.402 1.821 4.519.278.66.492.764.646.8.11.022.22.029.31.029.058 0 .094.007.094.059 0 .058-.066.074-.338.074-.265 0-.8 0-1.388-.016-.133-.006-.22-.006-.22-.058 0-.043.029-.06.103-.066.05-.015.102-.08.065-.17L3.68 36.24c-.015-.037-.036-.052-.073-.052H1.968z"/>
        </g>
        <path fill="#1C4369" d="M7.227 37.106c.015.572.11.764.258.815.124.043.264.05.381.05.081 0 .126.017.126.06 0 .058-.066.073-.17.073-.477 0-.771-.022-.91-.022-.067 0-.412.022-.793.022-.096 0-.162-.007-.162-.073 0-.043.043-.06.117-.06.096 0 .228-.007.33-.036.192-.058.22-.271.228-.91l.066-4.349c0-.147.022-.25.096-.25.08 0 .147.096.272.229a95.82 95.82 0 0 0 2.277 2.357c.5.5 1.491 1.557 1.616 1.675h.037l-.074-3.299c-.007-.447-.073-.586-.25-.66-.11-.044-.286-.044-.389-.044-.089 0-.117-.022-.117-.066 0-.06.08-.066.19-.066.382 0 .735.022.89.022.08 0 .359-.022.72-.022.094 0 .168.006.168.066 0 .044-.044.066-.132.066-.073 0-.132 0-.22.022-.206.059-.264.212-.272.624l-.08 4.634c0 .163-.03.228-.096.228-.081 0-.17-.08-.25-.161-.463-.44-1.403-1.403-2.167-2.16-.8-.792-1.617-1.71-1.749-1.85h-.022l.081 3.085M15.564 35.82c.037 0 .044-.023.037-.045l-.66-1.813c-.01-.03-.016-.066-.038-.066s-.038.036-.044.066l-.676 1.806c-.007.03 0 .052.03.052h1.35zm-1.499.367c-.036 0-.05.015-.066.06l-.396 1.05c-.075.183-.11.36-.11.448 0 .132.066.227.293.227h.11c.088 0 .111.016.111.059 0 .058-.045.074-.125.074-.235 0-.551-.022-.778-.022-.081 0-.486.022-.868.022-.095 0-.14-.016-.14-.074 0-.043.03-.06.089-.06.066 0 .168-.006.228-.013.337-.044.477-.294.625-.661l1.843-4.614c.088-.212.132-.293.205-.293.066 0 .11.066.185.234.175.405 1.35 3.402 1.82 4.519.28.66.493.764.647.8.11.022.22.029.309.029.058 0 .095.007.095.059 0 .058-.066.074-.338.074-.265 0-.801 0-1.388-.016-.133-.006-.22-.006-.22-.058 0-.043.029-.06.102-.066.052-.015.103-.08.066-.17l-.588-1.556c-.014-.037-.035-.052-.072-.052h-1.639zM19.831 35.49c0 .778.007 1.344.015 1.483.008.184.022.478.081.559.096.14.382.293.962.293.749 0 1.248-.147 1.69-.529.469-.404.616-1.072.616-1.828 0-.933-.389-1.536-.705-1.837-.675-.646-1.513-.735-2.087-.735-.146 0-.418.022-.476.052-.067.029-.089.066-.089.147-.007.25-.007.889-.007 1.47v.925zm-.918-.809c0-1.116 0-1.322-.015-1.556-.015-.25-.074-.367-.316-.42a1.478 1.478 0 0 0-.286-.021c-.08 0-.125-.015-.125-.066 0-.052.051-.066.161-.066.39 0 .853.022 1.058.022.227 0 .69-.022 1.131-.022.919 0 2.145 0 2.947.836.366.382.711.992.711 1.867 0 .925-.388 1.63-.8 2.049-.338.345-1.102.866-2.46.866-.265 0-.567-.022-.846-.044s-.536-.043-.72-.043c-.08 0-.242 0-.418.006-.169 0-.36.015-.507.015-.096 0-.147-.021-.147-.073 0-.037.03-.058.118-.058.11 0 .199-.015.264-.03.147-.03.184-.19.213-.404.037-.309.037-.889.037-1.565V34.68zM29.96 35.468c0-1.646-.948-2.666-2.152-2.666-.845 0-1.807.47-1.807 2.298 0 1.528.844 2.74 2.255 2.74.514 0 1.704-.25 1.704-2.372m-4.974-.14c0-1.256.83-2.88 3.034-2.88 1.83 0 2.968 1.066 2.968 2.748 0 1.682-1.175 3.011-3.041 3.011-2.107 0-2.96-1.579-2.96-2.88M33.44 35.975c0 .94 0 1.447.156 1.579.124.11.315.162.888.162.39 0 .676-.008.86-.207a.928.928 0 0 0 .19-.44c.007-.066.022-.11.082-.11.05 0 .058.037.058.125 0 .08-.051.632-.11.844-.044.161-.081.199-.463.199-.528 0-.911-.015-1.241-.022a18.11 18.11 0 0 0-1.316-.016c-.168 0-.36.016-.506.016-.096 0-.147-.022-.147-.074 0-.037.03-.058.118-.058.11 0 .198-.016.264-.03.147-.03.183-.19.213-.404.036-.309.036-.889.036-1.564V34.68c0-1.116 0-1.321-.014-1.557-.015-.25-.074-.367-.316-.419a1.121 1.121 0 0 0-.241-.022c-.082 0-.126-.014-.126-.065 0-.052.052-.066.162-.066.345 0 .807.022 1.006.022.175 0 .712-.022.999-.022.103 0 .153.014.153.066 0 .051-.043.065-.131.065-.08 0-.198.008-.286.022-.2.037-.258.163-.272.419-.015.236-.015.44-.015 1.557v1.294M36.504 34.681c0-1.116 0-1.322-.016-1.556-.014-.251-.072-.368-.315-.42a1.552 1.552 0 0 0-.286-.021c-.082 0-.125-.015-.125-.066 0-.052.051-.066.161-.066.39 0 .853.022 1.073.022.176 0 .639-.022.904-.022.11 0 .161.014.161.066 0 .05-.045.066-.117.066-.081 0-.126.007-.213.021-.199.038-.258.162-.272.42-.015.234-.015.44-.015 1.556v1.029c0 1.065.212 1.514.572 1.808.331.271.669.3.919.3.324 0 .72-.102 1.014-.397.404-.404.426-1.065.426-1.821v-.919c0-1.116 0-1.322-.015-1.556-.016-.251-.073-.368-.316-.42a1.473 1.473 0 0 0-.264-.021c-.08 0-.125-.015-.125-.066 0-.052.052-.066.154-.066.375 0 .837.022.845.022.088 0 .551-.022.837-.022.104 0 .155.014.155.066 0 .05-.045.066-.133.066-.08 0-.125.007-.212.021-.199.038-.258.162-.272.42-.016.234-.016.44-.016 1.556v.786c0 .816-.08 1.682-.697 2.211-.522.449-1.05.53-1.527.53-.39 0-1.095-.023-1.631-.508-.375-.338-.654-.881-.654-1.946v-1.073"/>
        <g transform="translate(43.294 32)">
            <mask id="b" fill="#fff">
                <use xlink:href="#a"/>
            </mask>
            <path fill="#1C4369" d="M3.78 3.82c.037 0 .044-.023.037-.045l-.66-1.813c-.008-.03-.016-.066-.037-.066-.022 0-.038.036-.044.066l-.677 1.806c-.007.03 0 .052.03.052h1.35zm-1.499.367c-.036 0-.05.015-.065.06l-.397 1.05c-.073.183-.11.36-.11.448 0 .132.067.227.293.227h.11c.089 0 .111.016.111.059 0 .058-.044.074-.126.074-.233 0-.55-.022-.777-.022-.08 0-.485.022-.866.022-.096 0-.14-.016-.14-.074 0-.043.03-.06.087-.06a2.2 2.2 0 0 0 .228-.013c.338-.044.478-.294.625-.661L3.098.683c.088-.212.131-.293.205-.293.066 0 .11.066.184.234.175.405 1.35 3.402 1.822 4.519.278.66.491.764.645.8.11.022.22.029.31.029.058 0 .096.007.096.059 0 .058-.067.074-.339.074-.265 0-.8 0-1.39-.016-.13-.006-.22-.006-.22-.058 0-.043.03-.06.104-.066.051-.015.103-.08.066-.17L3.993 4.24c-.014-.037-.036-.052-.073-.052H2.281z" mask="url(#b)"/>
            <path fill="#1C4369" d="M7.13 2.681c0-1.116 0-1.322-.015-1.556C7.1.874 7.041.757 6.798.705a1.547 1.547 0 0 0-.286-.021c-.08 0-.124-.015-.124-.066 0-.052.051-.066.16-.066.39 0 .853.022 1.044.022.177 0 .639-.022.927-.022.1 0 .153.014.153.066 0 .05-.044.066-.132.066-.08 0-.125.007-.213.021-.198.038-.257.162-.272.42-.015.234-.015.44-.015 1.556V4.04c0 .316.023.669.023 1.036 0 .42-.03.888-.177 1.3-.154.448-.543.954-1.249 1.388a3.999 3.999 0 0 1-.368.191.32.32 0 0 1-.146.045.058.058 0 0 1-.059-.059c0-.037.038-.067.162-.132.095-.052.205-.133.352-.28.56-.565.551-1.3.551-2.74V2.682" mask="url(#b)"/>
        </g>
        <path fill="#1C4369" d="M55.271 35.82c.037 0 .044-.023.037-.045l-.66-1.813c-.008-.03-.016-.066-.038-.066s-.037.036-.043.066l-.678 1.806c-.006.03 0 .052.03.052h1.352zm-1.5.367c-.035 0-.05.015-.065.06l-.396 1.05c-.073.183-.11.36-.11.448 0 .132.066.227.294.227h.11c.088 0 .11.016.11.059 0 .058-.044.074-.126.074-.234 0-.549-.022-.778-.022-.08 0-.484.022-.866.022-.096 0-.14-.016-.14-.074 0-.043.03-.06.088-.06.066 0 .169-.006.228-.013.338-.044.478-.294.624-.661l1.844-4.614c.089-.212.132-.293.205-.293.067 0 .111.066.184.234.176.405 1.352 3.402 1.822 4.519.28.66.492.764.646.8.11.022.22.029.309.029.059 0 .096.007.096.059 0 .058-.066.074-.338.074-.265 0-.8 0-1.39-.016-.131-.006-.22-.006-.22-.058 0-.043.03-.06.104-.066.05-.015.102-.08.066-.17l-.588-1.556c-.014-.037-.036-.052-.072-.052h-1.64z"/>
        <path fill="#1C4369" d="M59.031 37.106c.016.572.111.764.257.815.126.043.265.05.384.05.08 0 .123.017.123.06 0 .058-.065.073-.168.073-.478 0-.772-.022-.912-.022-.065 0-.41.022-.793.022-.095 0-.162-.007-.162-.073 0-.043.045-.06.118-.06.095 0 .228-.007.331-.036.191-.058.221-.271.228-.91l.065-4.349c0-.147.022-.25.097-.25.08 0 .146.096.272.229a93.92 93.92 0 0 0 2.276 2.357c.5.5 1.491 1.557 1.616 1.675h.037l-.074-3.299c-.008-.447-.073-.586-.25-.66-.11-.044-.286-.044-.388-.044-.089 0-.118-.022-.118-.066 0-.06.08-.066.192-.066.381 0 .733.022.887.022.08 0 .36-.022.72-.022.096 0 .17.006.17.066 0 .044-.044.066-.134.066-.071 0-.13 0-.22.022-.205.059-.263.212-.27.624l-.082 4.634c0 .163-.029.228-.096.228-.08 0-.168-.08-.249-.161-.464-.44-1.404-1.403-2.167-2.16-.8-.792-1.617-1.71-1.749-1.85h-.02l.08 3.085M65.172 38.016c-.118-.05-.14-.088-.14-.25 0-.403.03-.844.037-.962.007-.11.03-.19.09-.19.065 0 .071.066.071.124 0 .096.03.25.067.374.161.544.595.743 1.05.743.66 0 .984-.449.984-.838 0-.36-.11-.697-.72-1.175l-.338-.264c-.808-.632-1.087-1.146-1.087-1.741 0-.808.677-1.389 1.698-1.389.477 0 .786.073.976.126.066.014.104.036.104.087 0 .096-.03.31-.03.882 0 .161-.022.22-.08.22-.052 0-.075-.044-.075-.131a.883.883 0 0 0-.191-.485c-.11-.14-.323-.36-.8-.36-.544 0-.875.315-.875.756 0 .338.17.595.78 1.057l.204.155c.889.669 1.207 1.176 1.207 1.873 0 .427-.162.932-.691 1.279-.368.234-.779.3-1.17.3-.424 0-.755-.05-1.07-.19M69.851 34.681c0-1.116 0-1.322-.016-1.556-.014-.251-.087-.375-.25-.412a1.033 1.033 0 0 0-.263-.03c-.074 0-.118-.014-.118-.073 0-.044.058-.058.176-.058.28 0 .742.022.955.022.185 0 .617-.022.897-.022.095 0 .153.014.153.058 0 .059-.043.074-.117.074-.073 0-.133.007-.22.021-.198.038-.257.162-.272.42-.015.234-.015.44-.015 1.556v1.294c0 .712 0 1.292.03 1.608.021.198.073.33.293.36.103.015.265.029.375.029.082 0 .117.022.117.059 0 .05-.057.073-.139.073-.485 0-.947-.022-1.146-.022-.169 0-.631.022-.925.022-.096 0-.147-.022-.147-.073 0-.037.03-.06.117-.06.11 0 .199-.013.264-.029.148-.03.191-.153.213-.366.038-.31.038-.89.038-1.601V34.68"/>
    </g>
</svg>
