<svg xmlns="http://www.w3.org/2000/svg" width="108" height="40" viewBox="0 0 108 40">
    <defs>
        <radialGradient id="a" cx="80.305%" cy="12.607%" r="11.366%" fx="80.305%" fy="12.607%" gradientTransform="matrix(1 0 0 .89583 0 .013)">
            <stop offset="0%" stop-color="#FFF"/>
            <stop offset="100%" stop-color="#87C3E7"/>
        </radialGradient>
    </defs>
    <g fill="none" fill-rule="nonzero">
        <path fill="#007BC2" d="M62.873 19.588c-.852.407-2.02.412-3.208.412H57.5v-5.833h2.165c1.24 0 2.383.01 3.208.41.793.384 1.294 1.124 1.294 2.568 0 1.363-.516 2.071-1.294 2.443zM16.667 20l4.02-5.833V20h-4.02zM62.746 9.194c-.317-.02-.644-.027-.976-.027h-7.035l-4.048 5.26v5.45H39.163v-5.45h6.956l4.046-5.26H32.704v10.71H26.87V9.168H17l-7.397 10.71h-5.92L0 25.139h5.97l-4.51 6.529h7.226l4.305-6.529h7.373v6.529h6.506v-6.529h5.834v6.529h6.459v-6.529h11.524v6.529h6.485v-6.529h4.83c5.655 0 8.831-2.473 8.831-8.114 0-5.14-3.26-7.55-8.087-7.83z"/>
        <path fill="url(#a)" d="M83.52.02c-.742.05-1.149.149-1.25.3-.055.176.328.225 1.151.2.815-.05 1.227-.175 1.227-.351 0-.112-.216-.169-.632-.169-.143 0-.309.006-.496.02zm3.199.173c.069.181.59.327 1.536.452.92.075 1.306.023 1.178-.15-.119-.159-.667-.35-1.508-.424a4.43 4.43 0 0 0-.634-.056c-.414 0-.605.09-.572.178zM84.16.872c0 .3.537.474 1.588.499.367.024.732 0 1.1-.096.278-.08.381-.176.333-.305-.105-.27-.615-.425-1.563-.474a7.88 7.88 0 0 0-.235-.005c-.793 0-1.201.127-1.223.38zM80.89.77c-.772.13-1.232.329-1.386.576-.15.278.18.328 1.023.178.846-.124 1.334-.3 1.434-.579.052-.152-.094-.236-.435-.236-.167 0-.38.02-.636.061zm8.644 0c-.181.022-.333.154-.278.277.204.376 1.106.732 1.99.877.426.073.797.132 1.054.077.228-.049.278-.15.153-.327-.119-.083-.24-.169-.36-.251.232.082.462.168.692.251.822.227 1.1.227.846 0-.335-.251-.925-.502-1.741-.75-.424-.11-.884-.108-.945-.08-.063.028.175.16.3.23-.206-.116-.37-.15-.685-.23a4.03 4.03 0 0 0-.824-.083c-.085 0-.155.003-.202.01zM78.714.9c-.538.147-.898.296-1.08.471-.027.077.192.077.644 0 .641-.198 1.023-.347 1.098-.47.064-.065.045-.1-.063-.1-.11 0-.306.034-.599.1zm8.748.4c-.28.1-.385.225-.357.4.077.428.693.701 1.838.83.376.015.745.023 1.08-.078.253-.1.358-.227.278-.4-.178-.401-.793-.68-1.791-.802a2.897 2.897 0 0 0-.447-.037c-.2 0-.4.025-.601.086zm-4.374-.024c-.873.071-1.358.274-1.486.627-.025.149.087.254.358.348.27.092.446.114 1 .101.909-.015 1.456-.277 1.456-.652 0-.285-.328-.434-1-.434a6.14 6.14 0 0 0-.328.01zm-6.78.702c-.508.18-.96.442-1.13.648-.17.207.029.229.542.055.588-.228 1.028-.457 1.175-.654.083-.107.051-.165-.082-.165-.106 0-.278.036-.505.116zm17.677.177c.12.113.24.233.357.35a63.546 63.546 0 0 0-.945-.376c-.285-.11-.609-.14-.945-.15-.23.048-.283.176-.153.374.128.228.381.454.791.703.434.251.869.45 1.308.578.305.068.768.108.92.073.15-.033.149-.27.022-.424-.125-.157-.207-.22-.33-.325.357.22.79.48 1.051.558.261.079.332.085.487.118.036.083.076.178.16.272.082.092.226.201.375.333a37.71 37.71 0 0 0-.61-.304c-.437-.175-.748-.228-.927-.149-.206.074-.228.248-.048.574.13.228.33.453.585.705a4.385 4.385 0 0 0-1.253-.6c-.457-.152-.818-.152-1.047 0-.26.123-.331.373-.23.701.148.375.459.728.92 1.08.438.374 1.097.69 1.407.75.31.063.87.067 1.048-.074.181-.14.188-.542.053-.803-.136-.26-.343-.482-.508-.729.455.38.916.653 1.351.828.164.07.32.096.487.128.028.134.067.257.131.378.063.12.252.382.38.572a67.21 67.21 0 0 1-.665-.348c-.485-.169-.791-.11-.996.022-.207.178-.233.53-.078 1.034.078.158.151.318.228.474a2.504 2.504 0 0 0-.918-.45 2.623 2.623 0 0 0-1.205.099 1.869 1.869 0 0 0-.023-.652c-.132-.427-.434-.83-.898-1.18-.435-.352-.947-.575-1.508-.7-.59-.1-1.025-.054-1.357.174-.358.226-.486.577-.381 1.003.1.452.406.878.921 1.28.51.405 1.072.652 1.665.778.372.063.718.027 1.045-.1-.129.278-.129.628-.05 1.004.13.503.383.982.764 1.407a2.826 2.826 0 0 0-1.43-.704c-.64-.072-1.152.076-1.534.428-.385.347-.566.852-.49 1.505.105.654.412 1.231.948 1.732.512.528 1.099.827 1.742.904.484.024.896-.077 1.226-.326-.178.425-.23.85-.178 1.305.05.526.23 1.051.538 1.58a2.376 2.376 0 0 0-1.33-.501c-.718-.028-1.36.25-1.897.777-.586.578-.894 1.253-.869 2.062v.175c-.025.828.283 1.504.869 2.081.538.528 1.179.779 1.897.754a2.502 2.502 0 0 0 1.33-.453c-.308.504-.488 1.006-.538 1.532-.052.479 0 .932.178 1.332-.33-.252-.742-.351-1.226-.302-.643.05-1.205.351-1.742.878-.536.528-.843 1.102-.948 1.756-.076.63.105 1.134.49 1.508.382.35.893.48 1.535.4a2.818 2.818 0 0 0 1.43-.699c-.382.427-.636.9-.765 1.403-.079.4-.079.727.05 1.007a2.607 2.607 0 0 0-1.045-.08 3.733 3.733 0 0 0-1.665.753c-.515.404-.821.832-.921 1.283-.105.452.023.779.381 1.004.332.227.767.273 1.357.177.561-.126 1.073-.35 1.508-.706.464-.347.766-.752.898-1.207.075-.2.075-.4.023-.626.4.161.856.169 1.205.075.349-.095.762-.319.918-.423-.083.124-.092.153-.245.485-.152.331-.12.88.095 1.02.214.145.756.108.996.025.241-.082.442-.132.665-.352-.195.192-.281.396-.38.602-.1.204-.09.235-.131.351-.16.045-.326.086-.487.128a5.133 5.133 0 0 0-1.351.827c.166-.244.363-.416.508-.724.146-.31.127-.631-.053-.808-.349-.19-.7-.126-1.048-.073a3.495 3.495 0 0 0-1.407.752c-.461.348-.772.704-.92 1.053-.101.353.032.664.23.755.2.092.695.076 1.047-.025.488-.127.895-.33 1.23-.58-.257.25-.432.476-.562.679-.18.328-.158.526.049.603.178.075.49 0 .926-.175l.61-.303c-.129.135-.255.269-.384.4l-.151.202-.438.15c-.434.137-.792.372-1.125.579.117-.126.247-.232.355-.38.11-.148.135-.349-.022-.424-.247-.055-.577.012-.92.101-1.103.324-1.792.728-2.1 1.233-.129.199-.046.319.154.376.202.056.759-.045.945-.102.185-.06.66-.24.976-.403-.155.08-.26.218-.388.328-.153.177-.139.284.027.276.166-.006.552-.138.846-.254.291-.117.563-.281.842-.423 3.232-1.643 10.133-8.61 10.133-17.387 0-8.778-6.022-15.1-9.467-17.069a55.396 55.396 0 0 0-1.508-.84c-.317-.141-.579-.18-.846-.226-.18 0-.18.076-.027.252zm7.626 7.777c-.251-.07-.483-.271-.666-.649-.153-.356-.103-.479.183-.379.277.127.483.329.637.652.123.266.115.4-.028.4a.42.42 0 0 1-.126-.023zm-1.689 1.835c-.412-.1-.715-.404-.945-.903-.08-.227-.103-.405-.024-.525.075-.103.175-.13.354-.103.408.128.718.4.9.854.184.454.115.683-.187.683a.71.71 0 0 1-.098-.006zm-2.533 2.383c-.255-.097-.485-.272-.69-.55-.208-.279-.306-.55-.306-.83 0-.278.098-.45.306-.575a.733.733 0 0 1 .664-.026c.588.224.926.675.947 1.304.027.277-.048.48-.228.603a.68.68 0 0 1-.397.119c-.093 0-.191-.016-.296-.045zm6.297.778c-.282-.021-.485-.273-.664-.778-.156-.477-.078-.7.2-.677.257.077.485.327.665.78.122.448.083.678-.16.678-.014 0-.026 0-.041-.002zm-2.151 2.49c-.407-.279-.59-.68-.537-1.21.027-.223.102-.374.23-.447.131-.052.282-.026.46.073.383.277.563.677.538 1.18 0 .225-.08.375-.231.477a.308.308 0 0 1-.155.041.559.559 0 0 1-.305-.114zm2.532 2.585c.05-.503.18-.755.409-.755.26 0 .383.252.383.755 0 .499-.124.749-.383.749-.229 0-.359-.25-.409-.749zm-2.839 4.218c-.128-.077-.203-.201-.23-.43-.053-.528.13-.955.537-1.228.136-.067.275-.11.46-.026.151.077.231.229.231.451.025.525-.155.906-.538 1.156a.534.534 0 0 1-.304.118.316.316 0 0 1-.156-.041zm1.794 1.628c.179-.5.382-.749.664-.776.281-.028.33.2.201.678-.18.476-.408.726-.664.775-.015.004-.03.004-.043.004-.242 0-.305-.23-.158-.68zM96.7 27.656c-.208-.124-.306-.324-.306-.6 0-.276.098-.555.306-.829.205-.254.435-.428.69-.526.23-.028.459-.037.693.075.18.125.255.326.229.602-.022.625-.36 1.054-.948 1.278-.12.023-.243.04-.365.04-.1 0-.2-.01-.299-.04zm2.255 1.838c-.08-.13-.057-.278.023-.505.23-.525.534-.828.945-.906.385-.026.458.175.285.652-.182.48-.491.759-.9.881-.04.005-.078.01-.11.01-.113 0-.185-.038-.243-.132zm2.018 1.282c.128-.382.335-.608.588-.73.23-.104.308.022.181.374-.13.376-.336.6-.563.704a.412.412 0 0 1-.167.05c-.117 0-.133-.125-.04-.398zM77.713 2.102c-.64.15-1.048.404-1.251.726-.077.13-.033.241.1.28.166.047.4.023.64-.051.711-.22 1.151-.45 1.306-.778.052-.123.002-.215-.155-.226-.05-.002-.099-.006-.147-.006-.163 0-.325.02-.493.055zm7.11.252c-.33.152-.48.353-.48.579 0 .225.178.45.533.627.362.175.796.277 1.333.301.535 0 .973-.074 1.28-.252.33-.152.46-.351.436-.577-.053-.25-.258-.45-.616-.603-.332-.176-.77-.248-1.253-.273-.063-.002-.124-.006-.185-.006a2.59 2.59 0 0 0-1.048.204zm5.582.203c-.282.126-.382.299-.305.552.103.273.381.55.816.828.462.277.95.478 1.486.6.38.07.798.027 1.177-.071.253-.129.306-.33.18-.605-.129-.274-.41-.552-.82-.804a4.732 4.732 0 0 0-1.358-.5 3.2 3.2 0 0 0-.665-.077c-.199 0-.37.024-.511.077zm-10.516.05c-.923.175-1.458.475-1.611.927-.055.227.025.378.23.476.331.098.665.123.995.077 1-.175 1.564-.5 1.692-.978.025-.202-.103-.351-.333-.454a3.072 3.072 0 0 0-.633-.062c-.113 0-.227.005-.34.014zm8.06 1.18c-.305.174-.46.401-.435.727.076.325.305.6.713.852.438.279.923.43 1.461.48.54.049.947-.026 1.256-.201.3-.175.407-.428.33-.752-.076-.329-.33-.606-.715-.832A4.116 4.116 0 0 0 89.2 3.61a3.492 3.492 0 0 0-.352-.017c-.352 0-.648.06-.9.195zm-6.372.375c-.307.175-.485.402-.537.677-.051.275.077.502.384.682.306.173.69.25 1.175.225.49-.024.92-.15 1.254-.38.333-.224.49-.447.49-.725 0-.28-.157-.479-.463-.63-.305-.15-.69-.223-1.127-.223-.438.049-.846.173-1.176.374zm-8.364-.152a2.1 2.1 0 0 0-.87.68c-.18.25-.078.277.305.1.433-.226.716-.453.891-.703.088-.14.094-.209.018-.209-.06 0-.174.045-.345.132zm1.38.152c-.587.229-.997.528-1.229.929-.205.405 0 .505.617.327.663-.226 1.096-.553 1.303-.978.1-.252.034-.368-.2-.368-.12 0-.284.03-.492.09zm1.839.805c-.712.175-1.173.554-1.378 1.077-.079.229-.027.404.153.505.238.09.476.107.718.048.333-.074.637-.226.92-.452.278-.227.458-.45.511-.675.05-.229 0-.38-.154-.48a.87.87 0 0 0-.374-.076c-.122 0-.255.02-.396.053zm8.572.554c-.381.25-.588.55-.588.927 0 .4.207.75.615 1.028.438.302.945.453 1.583.479.616 0 1.104-.129 1.488-.404.383-.276.563-.601.51-1.002-.052-.378-.28-.703-.715-.982-.408-.273-.898-.4-1.485-.425-.561 0-1.021.125-1.408.379zm-14.12.374c-.334.177-.592.453-.796.777-.06.093-.114.189-.075.278.09.033.19-.019.279-.074.336-.23.616-.48.82-.804.097-.177.103-.27.013-.27-.05 0-.131.03-.242.093zm7.83.4a2.991 2.991 0 0 0-1.205.504c-.358.277-.563.579-.64.901-.076.329.025.605.306.806.283.173.641.25 1.128.2.486-.076.921-.248 1.28-.552.38-.277.584-.603.612-.928.05-.325-.078-.58-.386-.754a1.396 1.396 0 0 0-.756-.205c-.106 0-.219.008-.339.029zm9.822 1.684a1.197 1.197 0 0 0-.511 1.155c.05.475.306.904.768 1.28a2.97 2.97 0 0 0 1.663.678c.612.05 1.098-.078 1.456-.4.335-.326.49-.731.412-1.207-.102-.476-.382-.904-.818-1.255a3.148 3.148 0 0 0-1.535-.602 3.893 3.893 0 0 0-.258-.012c-.472 0-.852.125-1.176.363zm-5.833-.077c-.54.026-.973.2-1.356.477-.358.3-.562.654-.613 1.08-.027.429.155.751.486 1.029.332.3.79.428 1.355.404a2.369 2.369 0 0 0 1.433-.551c.383-.304.563-.679.587-1.107-.024-.404-.204-.729-.562-1.005-.324-.226-.705-.332-1.173-.332-.052 0-.103.002-.157.005zm-7.574 1.28a1.71 1.71 0 0 0-.92.527c-.28.276-.461.577-.54.904-.073.33 0 .6.183.776.176.203.459.28.817.23.358-.076.691-.277.973-.55.307-.306.485-.631.565-.955.051-.355-.027-.605-.258-.782a.798.798 0 0 0-.534-.185c-.09 0-.184.012-.286.035zm9.85 1.605c-.458.38-.693.832-.693 1.41.029.575.262 1.077.745 1.505.49.427 1.098.625 1.79.625.693 0 1.28-.198 1.716-.6.435-.404.613-.882.59-1.459-.05-.575-.31-1.056-.795-1.432a2.868 2.868 0 0 0-1.691-.598c-.665 0-1.227.175-1.662.55zm-6.445.554c-.514.076-.95.278-1.332.653a2.17 2.17 0 0 0-.64 1.229c-.049.479.078.88.385 1.183.33.321.74.452 1.256.4.535-.079.995-.303 1.405-.677.381-.378.613-.83.661-1.307.028-.475-.128-.851-.46-1.13a1.428 1.428 0 0 0-.991-.372c-.093 0-.187.007-.284.021zm10.363 2.889c-.437.427-.642.953-.615 1.605.073.653.355 1.23.844 1.73.484.502 1.077.754 1.738.754.642 0 1.178-.224 1.563-.651.383-.428.56-.953.512-1.607a2.514 2.514 0 0 0-.77-1.655 2.609 2.609 0 0 0-1.663-.756l-.095-.001c-.596 0-1.105.196-1.515.581zm-8.137.473c-.436.43-.67.932-.691 1.507a1.894 1.894 0 0 0 .59 1.507c.408.404.943.602 1.584.602a2.71 2.71 0 0 0 1.662-.724c.438-.455.666-.981.666-1.558 0-.603-.206-1.107-.64-1.486-.435-.348-.971-.525-1.584-.525-.64.052-1.152.276-1.587.677zm4.04 3.418c-.514.5-.767 1.128-.767 1.883 0 .75.253 1.378.766 1.88.517.48 1.153.73 1.92.752.743-.021 1.356-.273 1.841-.776.516-.478.793-1.107.843-1.83v-.052c-.05-.754-.327-1.383-.843-1.857-.485-.477-1.098-.73-1.841-.755-.767 0-1.403.253-1.92.755zm-7.775.475c-.335.377-.563.914-.563 1.41 0 .493.228 1.024.563 1.4.356.379.791.603 1.304.63.539.025.998-.151 1.38-.527.382-.4.56-.903.588-1.505-.028-.603-.206-1.108-.588-1.507-.382-.376-.841-.55-1.38-.55a2.022 2.022 0 0 0-1.304.649zm12.101 3.841a2.77 2.77 0 0 0-.844 1.731c-.027.68.178 1.207.614 1.609.43.402.972.575 1.61.55a2.68 2.68 0 0 0 1.663-.728 2.512 2.512 0 0 0 .77-1.63c.048-.654-.129-1.202-.512-1.63-.385-.454-.921-.68-1.563-.68-.661.026-1.254.3-1.738.778zm-8.467-.152a1.877 1.877 0 0 0-.59 1.483c.022.603.255 1.105.691 1.535a2.37 2.37 0 0 0 1.587.647c.613.023 1.15-.123 1.584-.502.434-.374.64-.876.64-1.48 0-.6-.228-1.13-.666-1.557a2.555 2.555 0 0 0-1.662-.701c-.037-.002-.072-.004-.108-.004-.592 0-1.09.201-1.476.579zm-3.712 3.313c-.307.278-.434.679-.385 1.157.078.5.283.927.64 1.28.383.353.818.555 1.332.604.51.075.944-.025 1.275-.303.332-.28.488-.68.46-1.152-.048-.48-.28-.932-.662-1.334a2.515 2.515 0 0 0-1.404-.65 2.195 2.195 0 0 0-.215-.013c-.417 0-.758.135-1.041.411zm8.084.705c-.483.428-.717.928-.745 1.508 0 .577.235 1.055.693 1.43.435.35.997.526 1.662.526.641 0 1.206-.201 1.69-.602.486-.375.745-.853.795-1.434.024-.575-.155-1.052-.59-1.455-.434-.4-1.022-.601-1.715-.626-.692.025-1.3.25-1.79.653zm-11.179 2.311c-.183.177-.256.451-.183.775.078.352.26.656.54.906.255.276.562.456.92.526.335.074.615.025.82-.152.231-.175.31-.423.258-.75a1.947 1.947 0 0 0-.565-.978 1.931 1.931 0 0 0-.973-.528 1.796 1.796 0 0 0-.211-.015c-.26 0-.466.077-.606.216zm16.604.298a2.982 2.982 0 0 0-1.663.68c-.461.376-.718.801-.768 1.303-.051.474.13.855.512 1.131.38.273.843.404 1.434.353.588-.08 1.097-.28 1.535-.63.436-.326.716-.753.818-1.229.078-.501-.077-.904-.412-1.204-.31-.283-.716-.415-1.217-.415-.076 0-.158.005-.239.011zm-9.236.582c-.331.273-.513.625-.486 1.051.051.427.255.78.613 1.08a2.42 2.42 0 0 0 1.356.475c.54.024.972-.074 1.33-.35.358-.25.538-.575.562-.999-.024-.405-.204-.76-.587-1.082a2.316 2.316 0 0 0-1.433-.553l-.144-.002c-.499 0-.907.126-1.21.38zm-4.045 2.007c-.28.2-.382.475-.305.8.076.33.281.63.64.908.33.276.741.425 1.204.499.459.078.814 0 1.095-.174.308-.173.437-.426.387-.752-.029-.331-.232-.657-.614-.931a2.742 2.742 0 0 0-1.28-.55 2.054 2.054 0 0 0-.351-.03c-.315 0-.567.08-.776.23zm7.856 1.03c-.408.276-.615.6-.615 1.003 0 .402.207.728.588.976.387.254.847.38 1.408.353.565-.024 1.05-.15 1.485-.422.435-.255.663-.58.715-.982.053-.402-.127-.73-.51-.98-.384-.277-.872-.427-1.488-.427a3.097 3.097 0 0 0-1.583.478zm-15.018.55c-.009.175.671.927.87 1.027.338.177.41.129.229-.172a2.47 2.47 0 0 0-.82-.806.646.646 0 0 0-.235-.076c-.026 0-.042.009-.044.027zm5.194.378c-.18.098-.232.275-.153.499.205.552.666.905 1.378 1.08.274.065.541.108.77-.023.154-.074.204-.252.154-.505-.154-.499-.641-.876-1.431-1.125a.852.852 0 0 0-.263-.041c-.16 0-.31.046-.455.115zm14.481.676c-.538.076-1.023.225-1.461.502-.408.277-.637.553-.713.852-.025.327.13.553.434.73.334.176.742.225 1.252.176.488-.05.95-.201 1.36-.452.384-.225.638-.504.714-.827.077-.327-.03-.58-.33-.756-.25-.16-.56-.238-.951-.238-.097 0-.199.004-.305.014zm-8.264.375c-.307.154-.435.38-.384.655.052.274.23.502.537.703.33.201.738.326 1.176.352.437.024.822-.052 1.127-.203.306-.173.463-.376.463-.649 0-.28-.157-.505-.49-.73-.333-.225-.765-.326-1.255-.35a3.067 3.067 0 0 0-.183-.005c-.398 0-.724.075-.991.227zm-8.033.054c-.141.034-.116.18-.027.325.226.365.656.77 1.228.955.574.186.842.1.692-.276-.207-.424-.868-.862-1.303-.98a1.42 1.42 0 0 0-.365-.05.996.996 0 0 0-.225.026zm-1.048.778c.175.247.483.474.87.675.356.177.456.128.327-.098-.176-.278-.459-.528-.892-.73-.149-.067-.255-.1-.32-.1-.1 0-.095.082.015.253zm20.06.121a5.14 5.14 0 0 0-1.487.579c-.435.277-.713.555-.816.828-.077.278.023.478.305.578.28.102.69.102 1.176 0 1.152-.223 1.896-.653 2.178-1.28.126-.3.073-.5-.18-.625a1.766 1.766 0 0 0-.682-.132c-.164 0-.33.021-.495.052zm-13.895.554c-.208.098-.285.227-.23.453.153.427.8.801 1.611.93.4.064.789.023.973-.052.268-.108.358-.226.333-.424-.05-.206-.231-.405-.561-.605a3.178 3.178 0 0 0-1.131-.376 2.94 2.94 0 0 0-.33-.016c-.252 0-.523.026-.665.09zm7.701.15c-.537.027-.971.126-1.333.303-.355.176-.533.373-.533.602 0 .25.15.45.48.58.338.15.746.22 1.233.196.483-.021.921-.095 1.253-.245.358-.177.563-.378.616-.604.024-.251-.106-.454-.436-.604-.294-.155-.646-.23-1.092-.23-.06 0-.124 0-.188.003zm-9.747 1.008c.203.324.613.59 1.254.74.639.2.937.044.792-.215-.144-.26-.613-.577-1.306-.752a2.345 2.345 0 0 0-.55-.092c-.24 0-.306.104-.19.319zm-1.283.198c.206.23.591.454 1.13.655.43.152.688.096.586-.049-.1-.142-.587-.456-1.175-.68a1.921 1.921 0 0 0-.475-.095c-.132 0-.154.055-.066.169zm13.765.101c-.252.034-.997.212-1.25.329-.248.115-.556.319-.587.492l-.001.01c-.015.183.084.321.356.401.17.048.345.077 1.048.024.703-.053 1.613-.351 1.792-.75.08-.177 0-.312-.279-.428a1.67 1.67 0 0 0-.638-.114c-.136 0-.283.013-.441.037zm-6.983.28c-.193.058-.384.2-.359.376.129.352.614.551 1.486.6.894.05 1.329-.101 1.329-.45 0-.15-.13-.276-.409-.406-.283-.12-.793-.203-1.048-.221-.03-.001-.066-.004-.102-.004-.28 0-.729.052-.897.105zm9.306.297c-.576.074-1.834.554-2.012.906-.155.327.278.374 1.305.176.228-.061.461-.12.685-.176-.096.066-.326.149-.3.198.023.05.433.069.944-.05.427-.1 1.405-.527 1.741-.776.321-.236.025-.252-.846.023-.23.078-.46.153-.691.226.119-.091.248-.16.36-.274.137-.14.059-.254-.154-.3a1.12 1.12 0 0 0-.25-.025 6.71 6.71 0 0 0-.782.072zm-4.155.197l.001-.025-.001.025zm0 0zm-.001.007v-.006.006zm0 0v0zm0 .007v-.002.002zm0 .001zm0 .003v-.003.003zm-.002.007c0-.003 0-.005.002-.007-.002.001-.002.005-.002.007zm0 0v0zm0 .005v-.004.004zm0 .001v-.001.001zm0 .001v-.001.001zm0 .003v-.003.003zm0 .003v-.003.003zm0 0v0zm0 .006v-.003.003zm-.002.01V38.3v.001zm-7.603.349c.128.25.588.451 1.386.58.792.123 1.148.075 1.072-.178-.129-.276-.588-.478-1.435-.6a4.406 4.406 0 0 0-.636-.06c-.348 0-.473.088-.387.259v-.001zm-1.868 0c.104.105.542.303 1.08.452.586.153.788.153.661 0-.126-.15-.486-.3-1.098-.478a1.63 1.63 0 0 0-.44-.067c-.162 0-.26.037-.203.094zm8.053-.025c-.743 0-1.526.21-1.526.477.025.304.51.428 1.458.404.948-.023 1.458-.2 1.562-.478.049-.126-.053-.224-.328-.3h.007-.008c-.002 0-.003-.002-.003-.002-.228-.058-.34-.089-1.1-.101h-.062zm1.162.101h.001zm.003.002c0-.002 0-.002-.002-.002.002 0 .002 0 .002.002zm.018.004l-.008-.002.008.002zm0 0h0zm.009 0h-.007.007zm.004.001h-.004.004zm0 0c.12.031.049.014 0 0zm1.372.595c-.946.125-1.46.276-1.536.45-.051.202.358.254 1.206.151.842-.1 1.356-.25 1.508-.423.096-.136-.103-.195-.605-.195-.16 0-.35.006-.573.016zm-5.985.33c.102.171.509.297 1.25.322.742.052 1.128 0 1.128-.175 0-.174-.411-.275-1.226-.323a7.668 7.668 0 0 0-.526-.02c-.458 0-.666.063-.626.195z"/>
    </g>
</svg>
