<svg xmlns="http://www.w3.org/2000/svg" width="108" height="40" viewBox="0 0 108 40">
    <g fill="none" fill-rule="nonzero">
        <path fill="#FF322E" d="M.205 34.827h32.526v3.931H.206v-3.93"/>
        <path fill="#000" d="M7.692 9.98l-5.467 16.4h3.958l3.714-11.592 1.861 5.795H9.351l-.962 3.308h4.432l.799 2.489h4.071l-5.467-16.4H7.692zm10.536 0v16.4h3.93V13.288h1.584c1.838 0 2.884.877 2.884 2.46 0 1.555-1.046 2.46-2.884 2.46h-.254v3.308h.424c4.24 0 6.73-2.134 6.73-5.768 0-3.704-2.489-5.768-6.73-5.768h-5.684z"/>
    </g>
</svg>
