<svg width="64" height="64" xmlns="http://www.w3.org/2000/svg">

 <g>
  <title>background</title>
  <rect fill="none" id="canvas_background" height="402" width="582" y="-1" x="-1"/>
 </g>
 <g>
  <title>Layer 1</title>
  <polyline fill="#919eab" points="29.70001220703125,36.600006103515625 27.399993896484375,34.29998779296875 53.20001220703125,8.600006103515625 55.399993896484375,10.79998779296875 29.70001220703125,36.600006103515625 " id="Fill-118" class="st0"/>
  <polyline fill="#919eab" points="56,25.100006103515625 52.600006103515625,25.100006103515625 52.600006103515625,11.399993896484375 38.899993896484375,11.399993896484375 38.899993896484375,8 56,8 56,25.100006103515625 " id="Fill-119" class="st0"/>
  <path fill="#919eab" id="Fill-120" d="m47.4,56l-34.3,0c-2.8,0 -5.1,-2.3 -5.1,-5.1l0,-34.3c0,-2.8 2.3,-5.1 5.1,-5.1l18.9,0l0,3.4l-18.9,0c-0.9,0 -1.7,0.8 -1.7,1.7l0,34.3c0,0.9 0.8,1.7 1.7,1.7l34.3,0c0.9,0 1.7,-0.8 1.7,-1.7l0,-18.9l3.4,0l0,18.9c0.1,2.8 -2.2,5.1 -5.1,5.1" class="st0"/>
 </g>
</svg>
