<svg xmlns="http://www.w3.org/2000/svg" xmlns:xlink="http://www.w3.org/1999/xlink" width="201" height="201"><defs><circle id="a" cx="100" cy="100" r="100"/></defs><g fill="none" fill-rule="evenodd" transform="rotate(-45 100.72 99.702)"><mask id="b" fill="#fff"><use xlink:href="#a"/></mask><use fill="#E62E37" xlink:href="#a"/><path fill="#212B36" d="M113.636 109.09l71.71 71.711-71.71 27.973z" mask="url(#b)"/><circle cx="138.317" cy="177.098" r="6.816" fill="#E62E37" mask="url(#b)"/><path fill="#FFF" d="M100 172.727c-40.166 0-72.727-32.56-72.727-72.727 0-40.166 32.56-72.727 72.727-72.727 40.166 0 72.727 32.56 72.727 72.727 0 40.166-32.56 72.727-72.727 72.727zm0-31.818c22.593 0 40.91-18.316 40.91-40.909S122.592 59.09 100 59.09c-22.593 0-40.91 18.317-40.91 40.91 0 22.593 18.317 40.91 40.91 40.91z" mask="url(#b)"/><path fill="#F9FAFB" d="M86.364 109.09h27.272V200H86.364z" mask="url(#b)"/></g></svg>