<svg width="24" height="24" xmlns="http://www.w3.org/2000/svg">

 <g>
  <title>background</title>
  <rect fill="none" id="canvas_background" height="402" width="582" y="-1" x="-1"/>
 </g>
 <g>
  <title>Layer 1</title>
  <path fill="#ffffff" id="svg_1" d="m20,10l-16,0c-1.1,0 -2,0.9 -2,2c0,1.1 0.9,2 2,2l16,0c1.1,0 2,-0.9 2,-2c0,-1.1 -0.9,-2 -2,-2z"/>
  <path fill="#ffffff" id="svg_2" d="m4,8l12,0c1.1,0 2,-0.9 2,-2c0,-1.1 -0.9,-2 -2,-2l-12,0c-1.1,0 -2,0.9 -2,2c0,1.1 0.9,2 2,2z"/>
  <path fill="#ffffff" id="svg_3" d="m16,16l-12,0c-1.1,0 -2,0.9 -2,2c0,1.1 0.9,2 2,2l12,0c1.1,0 2,-0.9 2,-2c0,-1.1 -0.9,-2 -2,-2z"/>
 </g>
</svg>