<svg xmlns="http://www.w3.org/2000/svg" width="108" height="40" viewBox="0 0 108 40">
    <defs>
        <linearGradient id="a" x1="93.256%" x2="6.695%" y1="72.935%" y2="27.027%">
            <stop offset="0%" stop-color="#F79210"/>
            <stop offset="50%" stop-color="#F35C19"/>
            <stop offset="100%" stop-color="#F79210"/>
        </linearGradient>
        <linearGradient id="b" x1="97.248%" x2="2.75%" y1="36.718%" y2="63.286%">
            <stop offset="0%" stop-color="#F79210"/>
            <stop offset="50%" stop-color="#F35C19"/>
            <stop offset="100%" stop-color="#F79210"/>
        </linearGradient>
        <linearGradient id="c" x1="84.285%" x2="15.711%" y1="16.015%" y2="84.006%">
            <stop offset="0%" stop-color="#F79210"/>
            <stop offset="50%" stop-color="#F35C19"/>
            <stop offset="100%" stop-color="#F79210"/>
        </linearGradient>
        <linearGradient id="d" x1="68.941%" x2="31.064%" y1="4.539%" y2="95.46%">
            <stop offset="0%" stop-color="#F79210"/>
            <stop offset="50%" stop-color="#F35C19"/>
            <stop offset="100%" stop-color="#F79210"/>
        </linearGradient>
        <linearGradient id="e" x1="50%" x2="50%" y1="-.005%" y2="100.002%">
            <stop offset="0%" stop-color="#F79210"/>
            <stop offset="50%" stop-color="#F35C19"/>
            <stop offset="100%" stop-color="#F79210"/>
        </linearGradient>
    </defs>
    <g fill="none" fill-rule="nonzero">
        <path fill="#827F80" d="M85.298 21.903c0 1.012.037 1.038.946 1.038h3.034c.129 0 .238.11.238.242v.77c0 .17-.06.231-.238.254-.385.061-1.165.17-2.59.17-1.992 0-3.045.013-3.045-2.474v-3.819c0-2.486 1.053-2.472 3.045-2.472 1.425 0 2.205.109 2.59.168.177.023.238.085.238.254v.771c0 .132-.11.242-.238.242h-3.034c-.909 0-.946.028-.946 1.037v1.107h3.835a.24.24 0 0 1 .237.24v.872c0 .131-.104.24-.237.24h-3.835v1.36zm17.719 2.479c-1.06 0-2.133-.184-2.708-.317-.119-.024-.228-.107-.228-.24v-.87c0-.131.109-.23.228-.23h.024c.48.061 1.6.219 2.708.219 1.065 0 1.392-.385 1.392-1.085 0-.905-2.145-1.405-3.192-1.84-1.042-.434-1.412-1.266-1.412-2.11 0-1.328 1.061-2.293 3.29-2.293 1.141 0 2.187.219 2.594.317.12.023.215.108.215.228v.893c0 .12-.082.217-.204.217h-.023c-.791-.071-1.611-.219-2.652-.219-.889 0-1.553.314-1.553.857 0 .397.45.762.982.975.532.211 1.23.485 2.026.808 1.01.411 1.664 1.01 1.664 2.167 0 1.219-.754 2.523-3.151 2.523zm-6.37-6.043c0-.905-.698-1.292-1.898-1.292-.25 0-1.34.024-1.556.049v2.617c.194.012 1.356.036 1.556.036 1.237 0 1.898-.24 1.898-1.3v-.11zm1.797 5.942h-1.463c-.132 0-.179-.123-.238-.242l-1.727-2.927h-.267c-.31 0-1.28-.034-1.556-.048v2.975c0 .132-.095.242-.226.242H91.77a.242.242 0 0 1-.24-.242v-7.91c0-.241.142-.326.382-.36.622-.097 1.964-.157 2.837-.157 1.846 0 3.55.664 3.55 2.727v.11c0 1.276-.636 1.976-1.618 2.36l1.883 3.23c.023.036.023.07.023.098 0 .082-.048.144-.143.144zm-16.27-7.174h-2.39v6.932c0 .132-.11.242-.243.242h-1.186a.242.242 0 0 1-.24-.242v-6.932h-2.392c-.13 0-.238-.083-.238-.217v-.953a.23.23 0 0 1 .238-.23h6.45a.23.23 0 0 1 .238.23v.953c0 .134-.108.217-.238.217zm-11.47 7.27c-1.928 0-3.588-.845-3.588-3.417v-5.023c0-.134.109-.23.241-.23h1.184c.133 0 .24.096.24.23v5.023c0 1.376.631 2.029 1.923 2.029 1.295 0 1.926-.653 1.926-2.03v-5.022c0-.134.106-.23.238-.23h1.186c.133 0 .241.096.241.23v5.023c0 2.572-1.661 3.416-3.59 3.416zm-9.597-2.474c0 1.012.038 1.038.944 1.038h3.034c.132 0 .24.11.24.242v.77c0 .17-.061.231-.24.254-.384.061-1.165.17-2.59.17-1.988 0-3.043.013-3.043-2.474v-3.819c0-2.486 1.055-2.472 3.044-2.472 1.424 0 2.205.109 2.589.168.179.023.24.085.24.254v.771a.243.243 0 0 1-.24.242H62.05c-.906 0-.944.028-.944 1.037v1.107h3.834c.132 0 .24.11.24.24v.872c0 .131-.108.24-.24.24h-3.834v1.36zm-5.136-3.564c0-.905-.697-1.292-1.895-1.292-.253 0-1.343.024-1.557.049v2.617c.19.012 1.35.036 1.557.036 1.232 0 1.895-.24 1.895-1.3v-.11zm1.798 5.942h-1.463c-.131 0-.18-.123-.24-.242l-1.725-2.927h-.265c-.313 0-1.282-.034-1.557-.048v2.975c0 .132-.097.242-.228.242h-1.199a.242.242 0 0 1-.239-.242v-7.91c0-.241.143-.326.384-.36.623-.097 1.963-.157 2.839-.157 1.844 0 3.548.664 3.548 2.727v.11c0 1.276-.634 1.976-1.617 2.36l1.88 3.23c.025.036.025.07.025.098 0 .082-.048.144-.143.144z"/>
        <path fill="url(#a)" d="M5.812 13.371a.716.716 0 0 1-.284-.961.704.704 0 0 1 .957-.292.72.72 0 0 1 .285.967.705.705 0 0 1-.622.372.697.697 0 0 1-.336-.086m1.897-.03a.633.633 0 0 1-.255-.854.616.616 0 0 1 .845-.253c.31.167.42.548.257.855a.619.619 0 0 1-.547.332.618.618 0 0 1-.3-.08m-3.697-.508a.805.805 0 0 1-.322-1.09.8.8 0 0 1 1.087-.33c.388.213.53.702.32 1.09a.795.795 0 0 1-1.086.33m5.518-.09a.565.565 0 0 1-.228-.755.545.545 0 0 1 .743-.22c.272.146.37.48.223.748a.544.544 0 0 1-.485.293.528.528 0 0 1-.253-.065m-6.945-1.128a.713.713 0 0 1-.288-.968.7.7 0 0 1 .952-.285.71.71 0 0 1 .29.961.708.708 0 0 1-.623.378.674.674 0 0 1-.331-.086m8.51-.009a.479.479 0 0 1-.195-.643.48.48 0 0 1 .642-.195c.227.13.316.416.192.647a.478.478 0 0 1-.416.25.457.457 0 0 1-.222-.059m1.157-1.553a.408.408 0 0 1-.153-.54.39.39 0 1 1 .686.372.395.395 0 0 1-.351.212.401.401 0 0 1-.182-.044m-10.687-.05a.643.643 0 0 1-.258-.857.627.627 0 0 1 .852-.254.634.634 0 0 1 .257.856.632.632 0 0 1-.851.255m11.276-1.65a.473.473 0 0 1-.193-.644.47.47 0 0 1 .63-.197c.233.135.32.423.2.65a.473.473 0 0 1-.415.249.458.458 0 0 1-.222-.058M1.067 8.137a.554.554 0 0 1-.22-.744.548.548 0 0 1 .746-.226.56.56 0 0 1 .222.75.545.545 0 0 1-.481.29.554.554 0 0 1-.267-.07m11.777-1.585a.565.565 0 0 1-.225-.754.558.558 0 0 1 .748-.22.553.553 0 0 1 .218.75.539.539 0 0 1-.48.29.571.571 0 0 1-.261-.066m-11.698-.35a.483.483 0 0 1-.187-.647.462.462 0 0 1 .636-.186.467.467 0 0 1 .191.64.48.48 0 0 1-.417.248.477.477 0 0 1-.223-.056M12.274 4.83a.64.64 0 0 1-.256-.86.626.626 0 0 1 .846-.256c.313.17.42.55.262.86a.633.633 0 0 1-.555.331.613.613 0 0 1-.297-.075m-10.47-.465a.397.397 0 1 1 .376-.7h-.001c.19.108.26.348.156.54a.397.397 0 0 1-.349.207.38.38 0 0 1-.183-.047m9.379-1.009a.713.713 0 0 1-.285-.963.697.697 0 0 1 .956-.284c.343.178.47.618.283.96a.715.715 0 0 1-.622.375.676.676 0 0 1-.332-.088m-8.287-.41a.474.474 0 0 1-.192-.64.46.46 0 0 1 .635-.189c.228.12.314.407.192.638a.465.465 0 0 1-.414.246.47.47 0 0 1-.221-.054m6.76-.645A.805.805 0 0 1 10.42.885c.386.215.53.706.323 1.088a.8.8 0 0 1-.706.43.782.782 0 0 1-.382-.1m-5.267-.35a.546.546 0 0 1-.222-.748.541.541 0 0 1 .74-.228c.267.152.367.489.224.755a.558.558 0 0 1-.484.287.512.512 0 0 1-.258-.067M7.947 1.6A.705.705 0 0 1 7.67.635a.688.688 0 0 1 .95-.284.71.71 0 1 1-.337 1.333.71.71 0 0 1-.336-.085m-1.821-.11a.637.637 0 0 1-.253-.857.628.628 0 0 1 .853-.259c.308.162.42.55.255.86a.643.643 0 0 1-.855.255" transform="matrix(1 0 0 -1 14.021 26.999)"/>
        <path fill="url(#b)" d="M8.251 18.504a.902.902 0 0 1 .605-1.121.898.898 0 0 1 1.113.61.9.9 0 0 1-.603 1.122.896.896 0 0 1-1.115-.61m2.401-.292a1.034 1.034 0 0 1 .698-1.29 1.023 1.023 0 0 1 1.276.697 1.038 1.038 0 0 1-.696 1.297 1.03 1.03 0 0 1-1.278-.704m-4.812-.21a.806.806 0 0 1 .543-.998.793.793 0 0 1 .99.544.81.81 0 0 1-.541.996.805.805 0 0 1-.991-.543m7.242-.93a.903.903 0 0 1 .607-1.12.897.897 0 0 1 1.113.614.902.902 0 0 1-.605 1.121.862.862 0 0 1-.252.037.906.906 0 0 1-.863-.652m-9.315-.35a.63.63 0 0 1 .425-.786.63.63 0 0 1 .78.429.636.636 0 0 1-.428.785.625.625 0 0 1-.777-.429m11.262-1.437a.802.802 0 0 1 .538-.998.8.8 0 0 1 .99.547.795.795 0 0 1-.54.991.78.78 0 0 1-.224.033.804.804 0 0 1-.764-.573m-12.901-.46a.507.507 0 1 1 .974-.287.514.514 0 0 1-.342.635.51.51 0 0 1-.632-.349m14.285-1.84a.631.631 0 0 1 .424-.788.626.626 0 0 1 .78.428.63.63 0 0 1-.423.783.626.626 0 0 1-.78-.423m-15.251-.516a.383.383 0 0 1 .254-.478.381.381 0 0 1 .472.261.384.384 0 0 1-.258.476.377.377 0 0 1-.468-.259M17 10.423a.509.509 0 0 1 .345-.635c.27-.08.55.076.63.348a.515.515 0 0 1-.344.635.507.507 0 0 1-.63-.348M.708 9.957a.512.512 0 0 1 .345-.633.512.512 0 0 1 .287.98v.001a.52.52 0 0 1-.633-.348M16.796 7.84a.385.385 0 0 1 .255-.473.375.375 0 0 1 .47.26.38.38 0 0 1-.255.475.386.386 0 0 1-.47-.262M1.07 7.466a.625.625 0 1 1 1.202-.353.626.626 0 0 1-.424.777.614.614 0 0 1-.778-.424m14.512-1.909a.51.51 0 0 1 .34-.634.51.51 0 0 1 .636.345.518.518 0 0 1-.345.637.51.51 0 0 1-.63-.348M2.126 5.261a.798.798 0 1 1 1.53-.453.81.81 0 0 1-.543 1 .78.78 0 0 1-.225.032.8.8 0 0 1-.762-.58m11.587-1.533a.64.64 0 0 1 .427-.786.625.625 0 0 1 .776.426.63.63 0 0 1-.421.787.632.632 0 0 1-.782-.428m-9.83-.204a.902.902 0 0 1 .606-1.118.902.902 0 0 1 1.115.613.908.908 0 0 1-.611 1.12.892.892 0 0 1-1.11-.615m2.175-1.055a1.04 1.04 0 0 1 .698-1.291 1.031 1.031 0 0 1 1.278.703 1.04 1.04 0 0 1-.699 1.291 1.026 1.026 0 0 1-1.278-.703m5.255.077a.807.807 0 0 1 .541-.997.794.794 0 0 1 .99.544.8.8 0 0 1-.539.994.8.8 0 0 1-.993-.541m-2.598-.45a.905.905 0 0 1 .61-1.116.888.888 0 0 1 1.11.607.904.904 0 0 1-.604 1.122.899.899 0 0 1-1.116-.614" transform="matrix(1 0 0 -1 11.894 30.19)"/>
        <path fill="url(#c)" d="M13.165 23.73a1.035 1.035 0 0 1 .046-1.454 1.014 1.014 0 0 1 1.442.042 1.037 1.037 0 0 1-.043 1.456 1.013 1.013 0 0 1-.698.28c-.273 0-.545-.11-.747-.323m-3.236-.252a.816.816 0 0 1 .036-1.148.803.803 0 0 1 1.137.036.82.82 0 0 1-.035 1.146.804.804 0 0 1-1.138-.034m6.407-.616a1.165 1.165 0 0 1 .046-1.637 1.147 1.147 0 0 1 1.627.046 1.166 1.166 0 0 1-.047 1.638 1.142 1.142 0 0 1-1.626-.047M6.84 22.22a.662.662 0 0 1 .027-.927.651.651 0 0 1 .922.028.66.66 0 0 1-.026.926.651.651 0 0 1-.922-.027m12.178-1.17a1.33 1.33 0 0 1 .052-1.88c.531-.507 1.37-.48 1.867.05a1.345 1.345 0 0 1-.052 1.89c-.255.242-.58.36-.904.36-.353 0-.703-.14-.963-.42M4.276 20.01a.49.49 0 0 1 .019-.69.48.48 0 0 1 .685.018.492.492 0 0 1-.018.693.494.494 0 0 1-.336.132.478.478 0 0 1-.35-.152m16.946-1.787a1.161 1.161 0 0 1 .05-1.637 1.142 1.142 0 0 1 1.623.05 1.16 1.16 0 0 1-.05 1.639 1.146 1.146 0 0 1-1.622-.051M2.238 17.3a.655.655 0 0 1 .03-.928.65.65 0 0 1 .92.025.662.662 0 0 1-.03.927.643.643 0 0 1-.445.18.654.654 0 0 1-.475-.204m20.22-2.385a1.03 1.03 0 0 1 .044-1.454 1.013 1.013 0 0 1 1.444.043c.39.412.369 1.064-.043 1.456a1.023 1.023 0 0 1-.702.278c-.271 0-.542-.107-.742-.323m-21.282-.798a.815.815 0 0 1 .035-1.144.802.802 0 0 1 1.137.031.82.82 0 0 1-.033 1.148.804.804 0 0 1-.554.221.795.795 0 0 1-.585-.256m21.538-2.773a.816.816 0 0 1 .036-1.144.798.798 0 0 1 1.138.034.81.81 0 0 1-.036 1.145.803.803 0 0 1-1.138-.035m-21.597-.495a1.038 1.038 0 0 1 .045-1.456 1.015 1.015 0 0 1 1.445.042 1.038 1.038 0 0 1-.044 1.459c-.197.188-.447.28-.698.28-.272 0-.546-.11-.748-.325m20.76-2.897a.664.664 0 0 1 .027-.93.651.651 0 0 1 .925.031.662.662 0 0 1-.028.929.653.653 0 0 1-.923-.03m-19.706-.24a1.162 1.162 0 0 1 .044-1.638 1.15 1.15 0 0 1 1.627.05 1.166 1.166 0 0 1-.047 1.637 1.129 1.129 0 0 1-.784.316c-.307 0-.613-.125-.84-.365m1.953-2.584a1.342 1.342 0 0 1 .057-1.885 1.312 1.312 0 0 1 1.867.056 1.339 1.339 0 0 1-.055 1.884 1.314 1.314 0 0 1-1.87-.055m15.96-.117a.494.494 0 0 1 .02-.693.48.48 0 0 1 .685.025.483.483 0 0 1-.02.688.48.48 0 0 1-.685-.02M7.058 3.073A1.16 1.16 0 0 1 7.11 1.44a1.14 1.14 0 0 1 1.622.047c.434.47.418 1.2-.049 1.639-.22.21-.504.313-.786.313h-.004c-.306 0-.61-.123-.835-.366m10.22-.043a.659.659 0 0 1 .025-.928.65.65 0 0 1 .923.028.658.658 0 0 1-.028.926.643.643 0 0 1-.92-.027m-6.867-.996A1.031 1.031 0 0 1 10.455.58 1.012 1.012 0 0 1 11.9.62a1.03 1.03 0 0 1-.04 1.454 1.022 1.022 0 0 1-1.448-.041m3.554-.051a.816.816 0 0 1 .035-1.145.801.801 0 0 1 1.138.037.81.81 0 0 1-.033 1.144.804.804 0 0 1-1.14-.036" transform="matrix(1 0 0 -1 8.702 32.318)"/>
        <path fill="url(#d)" d="M17.214 30.56a.887.887 0 0 1-.695-1.047.885.885 0 0 1 1.042-.697.888.888 0 0 1 .692 1.046.882.882 0 0 1-.864.716.91.91 0 0 1-.175-.018m-3.664-.242a.696.696 0 0 1-.583-.79.693.693 0 0 1 .784-.587c.378.057.64.408.584.79a.69.69 0 0 1-.683.595.84.84 0 0 1-.102-.008m7.195-.51a1.077 1.077 0 0 1-.773-1.311 1.07 1.07 0 0 1 1.304-.778c.57.147.918.735.77 1.31-.124.491-.559.814-1.035.814-.089 0-.177-.011-.266-.034m-10.943-.611a.65.65 0 0 1-.336-.852.643.643 0 0 1 .846-.337.651.651 0 0 1 .337.85.64.64 0 0 1-.847.338m14.071-.984a1.346 1.346 0 0 1-.876-1.684c.219-.709.97-1.105 1.671-.883.705.222 1.097.976.878 1.684-.18.576-.706.944-1.272.944a1.34 1.34 0 0 1-.4-.061M6.418 27.22a.7.7 0 0 1-.114-.976.688.688 0 0 1 .97-.115.7.7 0 0 1 .115.978.685.685 0 0 1-.54.264.697.697 0 0 1-.43-.15M26.444 25.7a1.481 1.481 0 0 1-.87-1.904 1.467 1.467 0 0 1 1.889-.878 1.487 1.487 0 0 1 .871 1.906 1.462 1.462 0 0 1-1.89.876m-22.713-.997a.891.891 0 0 1-.21-1.241.88.88 0 0 1 1.23-.21c.4.284.494.84.21 1.24a.872.872 0 0 1-1.23.212m24.501-2.148a1.614 1.614 0 0 1-.838-2.119 1.599 1.599 0 0 1 2.105-.844 1.618 1.618 0 0 1 .836 2.12c-.26.613-.85.975-1.468.975-.213 0-.429-.041-.635-.132M1.85 21.602a1.082 1.082 0 0 1-.33-1.488 1.066 1.066 0 0 1 1.476-.335c.502.317.649.986.332 1.49a1.064 1.064 0 0 1-.904.501c-.196 0-.395-.055-.574-.168m27.385-2.819a1.488 1.488 0 0 1-.666-1.984 1.465 1.465 0 0 1 1.974-.672 1.483 1.483 0 0 1 .664 1.985 1.47 1.47 0 0 1-1.32.824c-.22 0-.442-.049-.652-.153m-28.38-.571a1.346 1.346 0 0 1-.51-1.83 1.33 1.33 0 0 1 1.817-.514 1.35 1.35 0 0 1 .51 1.832 1.33 1.33 0 0 1-1.163.685h-.006c-.22 0-.443-.056-.649-.173m28.431-3.35a1.354 1.354 0 0 1-.51-1.832 1.329 1.329 0 0 1 1.816-.51c.644.363.874 1.179.511 1.829-.245.44-.698.687-1.164.687-.221 0-.445-.055-.653-.173m-28.38-.259a1.488 1.488 0 0 1-.667-1.986 1.47 1.47 0 0 1 1.976-.67 1.487 1.487 0 0 1 .664 1.987 1.464 1.464 0 0 1-1.315.827c-.222 0-.446-.051-.659-.158m1.044-3.467a1.616 1.616 0 0 1-.837-2.12 1.6 1.6 0 0 1 2.106-.843 1.619 1.619 0 0 1 .833 2.122c-.262.61-.85.973-1.468.973a1.58 1.58 0 0 1-.634-.132m26.505-.184a1.08 1.08 0 0 1-.332-1.487 1.063 1.063 0 0 1 1.477-.335c.499.318.65.982.333 1.488a1.074 1.074 0 0 1-.909.501c-.194 0-.391-.054-.569-.167m-24.47-3.14a1.486 1.486 0 0 1-.87-1.904 1.463 1.463 0 0 1 1.89-.876 1.481 1.481 0 0 1 .871 1.905c-.22.597-.781.968-1.38.968-.17 0-.343-.03-.511-.093m22.713-.333a.892.892 0 0 1-.21-1.24.882.882 0 0 1 1.233-.214.896.896 0 0 1 .208 1.243.873.873 0 0 1-1.23.21M6.778 5.086a1.343 1.343 0 0 1-.876-1.683 1.325 1.325 0 0 1 1.67-.882c.704.22 1.098.971.878 1.681a1.337 1.337 0 0 1-1.275.946c-.131 0-.265-.02-.397-.062m17.391-.483a.702.702 0 0 1-.113-.976.686.686 0 0 1 .972-.114.7.7 0 0 1 .115.976.688.688 0 0 1-.543.264.696.696 0 0 1-.43-.15m-13.997-1.59a1.077 1.077 0 0 1-.77-1.31 1.067 1.067 0 0 1 1.3-.78c.574.148.92.732.774 1.312-.123.487-.56.812-1.037.812a1.1 1.1 0 0 1-.267-.034m10.963-.29a.648.648 0 0 1-.336-.85.642.642 0 0 1 .846-.34.651.651 0 0 1 .338.852.645.645 0 0 1-.592.39.64.64 0 0 1-.256-.053m-7.25-.805a.892.892 0 0 1-.692-1.048.884.884 0 0 1 1.04-.7c.478.097.79.566.694 1.051a.888.888 0 0 1-.868.714.879.879 0 0 1-.174-.017m3.809-.126a.698.698 0 0 1-.582-.79.691.691 0 0 1 .783-.587.694.694 0 0 1 .585.79.692.692 0 0 1-.687.594.634.634 0 0 1-.1-.007" transform="matrix(1 0 0 -1 5.51 35.51)"/>
        <path fill="url(#e)" d="M20.22 38.086c0-.46.37-.83.823-.83.455 0 .825.37.825.83a.824.824 0 0 1-1.649 0m-4.149.23a.89.89 0 0 1-.627-1.09.886.886 0 0 1 1.084-.63.894.894 0 0 1 .628 1.092.884.884 0 0 1-.852.66.884.884 0 0 1-.233-.032m8.863-.629a.885.885 0 1 1 1.712-.462.892.892 0 0 1-.63 1.091.881.881 0 0 1-1.082-.629m-13.292-.957a1.137 1.137 0 0 1-.873-1.352c.13-.615.73-1.008 1.343-.877a1.14 1.14 0 0 1 .872 1.353 1.13 1.13 0 0 1-1.103.902c-.079 0-.159-.008-.239-.026m17.462-.876a1.14 1.14 0 0 1 .873-1.353 1.13 1.13 0 0 1 1.341.877c.133.62-.26 1.22-.871 1.35a1.127 1.127 0 0 1-1.343-.874M7.867 34.043a1.376 1.376 0 0 1-1.14-1.58c.119-.753.82-1.27 1.569-1.15.749.119 1.26.828 1.141 1.583a1.37 1.37 0 0 1-1.352 1.164 1.38 1.38 0 0 1-.218-.017m24.783-1.148a1.384 1.384 0 0 1 1.14-1.583 1.374 1.374 0 0 1 1.57 1.15c.12.758-.394 1.46-1.139 1.58a1.373 1.373 0 0 1-1.571-1.147m2.565-3.862a1.724 1.724 0 0 1 1.522-1.893c.94-.1 1.781.59 1.88 1.534.1.95-.582 1.793-1.52 1.893a1.717 1.717 0 0 1-1.882-1.534M4.989 30.567a1.715 1.715 0 0 1-1.52-1.893 1.71 1.71 0 0 1 1.878-1.533 1.72 1.72 0 0 1 1.522 1.892 1.713 1.713 0 0 1-1.697 1.544c-.06 0-.12-.004-.183-.01m31.882-6.065a1.896 1.896 0 0 1 1.781-1.998 1.895 1.895 0 0 1 1.985 1.8 1.892 1.892 0 0 1-1.785 1.994 1.887 1.887 0 0 1-1.98-1.796M3.23 26.298a1.89 1.89 0 0 1-1.783-1.995 1.895 1.895 0 0 1 1.984-1.799c1.04.056 1.838.95 1.784 1.998a1.887 1.887 0 0 1-1.883 1.8c-.034 0-.068-.002-.102-.004m34.091-6.675c0-1.142.917-2.069 2.05-2.069 1.134 0 2.054.927 2.054 2.067 0 1.148-.92 2.066-2.052 2.066a2.053 2.053 0 0 1-2.052-2.064M.66 19.621c0-1.14.923-2.067 2.054-2.067a2.06 2.06 0 0 1 2.048 2.07c0 1.145-.92 2.063-2.048 2.063A2.058 2.058 0 0 1 .66 19.621m37.992-2.883a1.895 1.895 0 0 1-1.78-1.995 1.888 1.888 0 0 1 1.98-1.797 1.892 1.892 0 0 1 1.784 1.995 1.894 1.894 0 0 1-1.884 1.8l-.1-.003M1.45 14.941a1.892 1.892 0 0 1 1.783-1.995 1.889 1.889 0 0 1 1.985 1.797 1.896 1.896 0 0 1-1.784 1.995l-.1.002a1.894 1.894 0 0 1-1.884-1.799m35.288-2.839a1.722 1.722 0 0 1-1.522-1.893c.1-.95.945-1.631 1.88-1.532.94.1 1.622.941 1.522 1.892a1.716 1.716 0 0 1-1.699 1.543c-.058 0-.12-.003-.18-.01M3.467 10.57A1.715 1.715 0 0 1 4.99 8.677a1.711 1.711 0 0 1 1.88 1.532 1.72 1.72 0 0 1-1.522 1.893 1.712 1.712 0 0 1-1.879-1.533m30.323-2.64a1.381 1.381 0 0 1-1.141-1.58A1.371 1.371 0 0 1 34.22 5.2c.746.12 1.259.822 1.14 1.58a1.377 1.377 0 0 1-1.355 1.166 1.46 1.46 0 0 1-.214-.017M6.73 6.78a1.375 1.375 0 0 1 1.138-1.579c.748-.12 1.451.39 1.571 1.148a1.382 1.382 0 0 1-1.142 1.58A1.373 1.373 0 0 1 6.729 6.78m23.247-2.038a1.14 1.14 0 0 1-.874-1.353 1.13 1.13 0 0 1 1.344-.88c.611.13 1.003.735.871 1.355a1.137 1.137 0 0 1-1.107.903c-.078 0-.157-.007-.234-.025m-19.207-.88c-.132-.618.26-1.223.871-1.353a1.13 1.13 0 0 1 1.343.88 1.14 1.14 0 0 1-.872 1.353 1.137 1.137 0 0 1-1.341-.879m14.787-1.217a.896.896 0 0 1-.626-1.093.884.884 0 0 1 1.084-.627.89.89 0 0 1 .629 1.09.888.888 0 0 1-.857.66.86.86 0 0 1-.23-.03m-10.114-.632A.89.89 0 0 1 16.07.927a.883.883 0 0 1 1.085.628.893.893 0 0 1-.628 1.092.89.89 0 0 1-1.084-.632m4.776-.859c0-.44.34-.797.768-.826h.112c.429.029.77.386.77.827 0 .458-.371.83-.826.83a.827.827 0 0 1-.824-.83" transform="matrix(1 0 0 -1 .191 39.765)"/>
    </g>
</svg>
