<?xml version="1.0" encoding="UTF-8"?>
<svg width="24px" height="24px" viewBox="0 0 24 24" version="1.1" xmlns="http://www.w3.org/2000/svg" xmlns:xlink="http://www.w3.org/1999/xlink">
    <!-- Generator: sketchtool 47.1 (45422) - http://www.bohemiancoding.com/sketch -->
    <title>58A9D4EE-A780-4B7F-9320-966A1ECD784C</title>
    <desc>Created with sketchtool.</desc>
    <defs>
        <path d="M22,20.5649769 L16.5268179,15.0917948 C17.6320089,13.6750393 18.237885,11.9446897 18.237885,10.1189425 C18.237885,7.95016999 17.3925001,5.91130055 15.8590349,4.37885015 C14.3265845,2.84437002 12.287715,2 10.1189425,2 C7.95016999,2 5.91130055,2.84437002 4.37885015,4.37885015 C2.84538489,5.91130055 2,7.95016999 2,10.1189425 C2,12.287715 2.84538489,14.3265845 4.37885015,15.8590349 C5.91130055,17.393515 7.95016999,18.237885 10.1189425,18.237885 C11.9446897,18.237885 13.6750393,17.6330238 15.0917948,16.5268179 L20.5649769,21.9989851 L22,20.5649769 Z M10.1189425,16.2081494 C8.4921094,16.2081494 6.96371848,15.5748719 5.81387324,14.4250266 C4.66301314,13.2751814 4.02973563,11.7457756 4.02973563,10.1189425 C4.02973563,8.49312427 4.66301314,6.96371848 5.81387324,5.81387324 C6.96371848,4.66301314 8.4921094,4.02973563 10.1189425,4.02973563 C11.7457756,4.02973563 13.2741665,4.66301314 14.4240118,5.81387324 C15.5748719,6.96371848 16.2081494,8.49312427 16.2081494,10.1189425 C16.2081494,11.7457756 15.5748719,13.2751814 14.4240118,14.4250266 C13.2741665,15.5748719 11.7457756,16.2081494 10.1189425,16.2081494 Z" id="path-1"></path>
    </defs>
    <g id="Symbols" stroke="none" stroke-width="1" fill="none" fill-rule="evenodd">
        <g id="Icon/Search">
            <rect id="Bounding-Box" x="0" y="0" width="24" height="24"></rect>
            <mask id="mask-2" fill="white">
                <use xlink:href="#path-1"></use>
            </mask>
            <g id="Mask"></g>
            <g id="Mixin/Color/Main/Grey" mask="url(#mask-2)" fill="#919eab">
                <rect id="Rectangle" x="0" y="0" width="100" height="40"></rect>
            </g>
        </g>
    </g>
</svg>
