<svg width="141.732" height="141.732" xmlns="http://www.w3.org/2000/svg">

  <g>
    <title>background</title>
    <rect fill="none" id="canvas_background" height="402" width="582" y="-1" x="-1"/>
  </g>
  <g>
    <title>Layer 1</title>
    <path fill="#919eab" transform="rotate(-90.05062103271484 70.52512359619142,70.5255584716797) " id="svg_1" d="m115.823,70.659c-11.776,11.775 -30.416,12.498 -43.035,2.169l-4.567,-4.568c-10.331,-12.619 -9.606,-31.258 2.17,-43.037c12.548,-12.546 32.888,-12.544 45.432,0.004c12.545,12.548 12.547,32.885 0,45.432m11.112,11.606c18.819,-18.818 18.819,-49.332 0,-68.151c-18.818,-18.819 -49.332,-18.819 -68.151,0c-16.884,16.884 -18.61,43.174 -5.199,61.992l-51.232,51.233c-3.136,3.137 -3.136,8.222 0,11.36c3.134,3.137 8.22,3.136 11.358,0l51.231,-51.234c18.819,13.411 45.11,11.684 61.993,-5.2"/>
  </g>
</svg>
