<svg xmlns="http://www.w3.org/2000/svg" xmlns:xlink="http://www.w3.org/1999/xlink" width="24" height="24" viewBox="0 0 24 24">
    <defs>
        <path id="a" d="M20 18.853l-4.378-4.379a6.437 6.437 0 0 0 1.369-3.979 6.45 6.45 0 0 0-1.903-4.592A6.447 6.447 0 0 0 10.495 4a6.447 6.447 0 0 0-4.592 1.903A6.45 6.45 0 0 0 4 10.495a6.45 6.45 0 0 0 1.903 4.593 6.447 6.447 0 0 0 4.592 1.903c1.461 0 2.846-.484 3.979-1.369L18.853 20 20 18.853zm-9.505-3.486a4.838 4.838 0 0 1-3.444-1.426 4.838 4.838 0 0 1-1.427-3.446c0-1.3.507-2.524 1.427-3.444a4.836 4.836 0 0 1 3.444-1.427c1.302 0 2.525.507 3.445 1.427a4.837 4.837 0 0 1 1.427 3.444 4.838 4.838 0 0 1-1.427 3.446 4.838 4.838 0 0 1-3.445 1.426z"/>
    </defs>
    <g fill="none" fill-rule="evenodd">
        <path d="M0 0h24v24H0z"/>
        <mask id="b" fill="#fff">
            <use xlink:href="#a"/>
        </mask>
        <g fill="#8F8F8F" mask="url(#b)">
            <path d="M0 0h100v40H0z"/>
        </g>
    </g>
</svg>
