<svg xmlns="http://www.w3.org/2000/svg" width="173" height="236"><g fill="#212B36" fill-rule="evenodd" stroke="#637381" stroke-width="2"><path d="M19.798 91.086l103.683 75.33c-19.669 27.072-58.823 32.155-87.455 11.353C7.395 156.967.13 118.158 19.798 91.086zm-103.683-75.33C-64.217-11.316-25.062-16.398 3.569 4.404c28.632 20.801 35.897 59.61 16.229 86.682l-103.683-75.33z"/><path d="M24.7 102.54l104.89 70.749c-18.503 27.43-56.982 33.83-85.947 14.294C14.68 168.046 6.198 129.97 24.7 102.54zM-80.189 31.792C-61.686 4.36-23.207-2.038 5.757 17.498 34.722 37.035 43.203 75.109 24.7 102.54L-80.189 31.792z"/><path d="M29.603 113.994l105.903 66.176c-17.335 27.742-55.095 35.418-84.34 17.144-29.244-18.274-38.898-55.577-21.563-83.32zM-76.3 47.82C-58.965 20.077-21.205 12.4 8.04 30.675c29.244 18.274 38.898 55.577 21.563 83.32L-76.3 47.818z"/><path d="M34.506 125.449l106.727 61.619c-16.169 28.006-53.168 36.915-82.64 19.9-29.472-17.016-40.256-53.514-24.087-81.52zm-106.728-61.62c16.17-28.005 53.169-36.915 82.64-19.899 29.473 17.016 40.257 53.513 24.088 81.519l-106.728-61.62z"/><path d="M39.408 136.903l107.365 57.086c-15.006 28.223-51.205 38.322-80.853 22.558-29.648-15.764-41.518-51.422-26.512-79.644zM-67.956 79.816c15.006-28.222 51.205-38.322 80.853-22.558 29.648 15.764 41.517 51.422 26.511 79.645L-67.956 79.816z"/><path d="M44.311 148.357l107.817 52.586c-13.848 28.392-49.21 39.636-78.982 25.115-29.773-14.521-42.683-49.31-28.835-77.701zM-63.506 95.77c13.848-28.392 49.21-39.637 78.982-25.116 29.773 14.522 42.683 49.31 28.835 77.702L-63.506 95.77z"/><path d="M49.214 159.81l108.088 48.125c-12.696 28.515-47.185 40.86-77.033 27.57-29.847-13.289-43.751-47.178-31.055-75.694zm-108.088-48.123c12.696-28.516 47.184-40.86 77.032-27.57 29.848 13.288 43.752 47.178 31.056 75.694l-108.088-48.124z"/><path d="M54.116 171.265l108.181 43.707c-11.553 28.595-45.135 41.99-75.008 29.921-29.874-12.07-44.725-45.034-33.173-73.628zm-108.18-43.708c11.553-28.594 45.135-41.99 75.008-29.92 29.874 12.069 44.725 45.033 33.172 73.628l-108.18-43.708z"/><path d="M59.02 182.719l108.098 39.344c-10.42 28.628-43.066 43.028-72.916 32.164-29.85-10.865-45.603-42.88-35.183-71.508zm-108.1-39.345c10.42-28.628 43.066-43.028 72.917-32.163 29.85 10.864 45.602 42.88 35.182 71.508l-108.098-39.345z"/><path d="M63.888 194.277l107.846 35.041c-9.28 28.561-40.945 43.87-70.726 34.194-29.78-9.676-46.4-40.674-37.12-69.235zm-107.845-35.041c9.28-28.561 40.945-43.87 70.725-34.194 29.781 9.676 46.4 40.674 37.12 69.235l-107.845-35.041z"/></g></svg>